<?xml version="1.0" encoding="utf-8"?>
<!-- Generator: Adobe Illustrator 18.0.0, SVG Export Plug-In . SVG Version: 6.00 Build 0)  -->
<!DOCTYPE svg PUBLIC "-//W3C//DTD SVG 1.1//EN" "http://www.w3.org/Graphics/SVG/1.1/DTD/svg11.dtd">
<svg version="1.1" id="图层_1" xmlns="http://www.w3.org/2000/svg" xmlns:xlink="http://www.w3.org/1999/xlink" x="0px" y="0px"
	 viewBox="0 0 1024 1024" style="enable-background:new 0 0 1024 1024;" xml:space="preserve">
<style type="text/css">
	.st0{fill:#040000;}
	.st1{fill:none;stroke:#040000;stroke-width:45;stroke-linecap:round;stroke-linejoin:round;stroke-miterlimit:10;}
</style>
<g>
	<path d="M489.3,756.9c-82.1,0-159.4-32-217.4-90.1s-90.1-135.3-90.1-217.4c0-82.1,32-159.4,90.1-217.4s135.3-90.1,217.4-90.1
		s159.4,32,217.4,90.1s90.1,135.3,90.1,217.4c0,82.1-32,159.4-90.1,217.4S571.4,756.9,489.3,756.9z M489.3,181.9
		c-147.5,0-267.5,120-267.5,267.5s120,267.5,267.5,267.5s267.5-120,267.5-267.5S636.8,181.9,489.3,181.9z"/>
</g>
<g>
	<path d="M489.3,658.8c-115.4,0-209.4-93.9-209.4-209.4C279.9,334,373.8,240,489.3,240c115.5,0,209.4,93.9,209.4,209.4
		C698.7,564.9,604.7,658.8,489.3,658.8z M489.3,280c-93.4,0-169.4,76-169.4,169.4s76,169.4,169.4,169.4s169.4-76,169.4-169.4
		S582.7,280,489.3,280z"/>
</g>
<g>
	<path d="M189.3,865.7c-3.1,0-6.3-0.7-9.2-2.3c-9.8-5.1-13.6-17.2-8.5-27l95-182.6c5.1-9.8,17.2-13.6,27-8.5
		c9.8,5.1,13.6,17.2,8.5,27l-95,182.6C203.4,861.8,196.5,865.7,189.3,865.7z"/>
</g>
<g>
	<path d="M368,965.2c-3,0-6.1-0.7-9-2.2c-9.8-5-13.8-17-8.8-26.9l106.1-208.7c5-9.8,17-13.8,26.9-8.8c9.8,5,13.8,17,8.8,26.9
		L385.8,954.3C382.3,961.2,375.2,965.2,368,965.2z"/>
</g>
<g>
	<path d="M614.6,962.2c-7.5,0-14.7-4.2-18.1-11.5l-97.3-206.6c-4.7-10-0.4-21.9,9.6-26.6c10-4.7,21.9-0.4,26.6,9.6l97.3,206.6
		c4.7,10,0.4,21.9-9.6,26.6C620.3,961.6,617.4,962.2,614.6,962.2z"/>
</g>
<g>
	<path d="M791.3,865.7c-7.2,0-14.2-3.9-17.8-10.8l-99-191c-5.1-9.8-1.3-21.9,8.6-27c9.8-5.1,21.9-1.3,27,8.6l99,191
		c5.1,9.8,1.3,21.9-8.6,27C797.5,865,794.4,865.7,791.3,865.7z"/>
</g>
<g>
	<path d="M375.9,949.7c-2.5,0-4.9-0.5-7.4-1.4c-10.3-4.1-15.3-15.7-11.2-26c3.8-9.6,5.7-19.7,5.7-30.1c0-45.1-36.7-81.8-81.8-81.8
		c-30.3,0-57.9,16.6-72.2,43.3c-5.2,9.7-17.3,13.4-27.1,8.2c-9.7-5.2-13.4-17.3-8.2-27.1c21.3-39.7,62.4-64.4,107.5-64.4
		c67.2,0,121.8,54.7,121.8,121.8c0,15.5-2.9,30.6-8.5,44.8C391.4,944.9,383.8,949.7,375.9,949.7z"/>
</g>
<g>
	<path d="M610.6,954c-8,0-15.5-4.8-18.6-12.6c-5.7-14.3-8.5-29.4-8.5-44.8c0-67.2,54.7-121.8,121.8-121.8
		c35.7,0,69.5,15.6,92.7,42.8c7.2,8.4,6.2,21-2.2,28.2c-8.4,7.2-21,6.2-28.2-2.2c-15.6-18.3-38.3-28.8-62.3-28.8
		c-45.1,0-81.8,36.7-81.8,81.8c0,10.4,1.9,20.5,5.7,30.1c4.1,10.3-1,21.9-11.2,26C615.6,953.6,613.1,954,610.6,954z"/>
</g>
</svg>
