<?xml version="1.0" encoding="utf-8"?>
<!-- Generator: Adobe Illustrator 18.0.0, SVG Export Plug-In . SVG Version: 6.00 Build 0)  -->
<!DOCTYPE svg PUBLIC "-//W3C//DTD SVG 1.1//EN" "http://www.w3.org/Graphics/SVG/1.1/DTD/svg11.dtd">
<svg version="1.1" id="图层_1" xmlns="http://www.w3.org/2000/svg" xmlns:xlink="http://www.w3.org/1999/xlink" x="0px" y="0px"
	 viewBox="0 0 1024 1024" style="enable-background:new 0 0 1024 1024;" xml:space="preserve">
<style type="text/css">
	.st0{fill:#040000;}
	.st1{fill:none;stroke:#040000;stroke-width:45;stroke-linecap:round;stroke-linejoin:round;stroke-miterlimit:10;}
</style>
<g>
	<path d="M646.8,872.1H205.2V228.2c0-37.6,30.6-68.1,68.1-68.1h305.3c37.6,0,68.1,30.6,68.1,68.1V872.1z M245.2,832.1h361.6V228.2
		c0-15.5-12.6-28.1-28.1-28.1H273.4c-15.5,0-28.1,12.6-28.1,28.1V832.1z"/>
</g>
<g>
	<path d="M800.2,857.9c-11,0-20-9-20-20V622.6c0-20.1-8.8-39-24.2-51.9L614.5,451.8c-8.5-7.1-9.6-19.7-2.5-28.2
		c7.1-8.5,19.7-9.6,28.2-2.5L781.7,540c24.5,20.5,38.5,50.6,38.5,82.6v215.3C820.2,849,811.3,857.9,800.2,857.9z"/>
</g>
<g>
	<path d="M499.3,425.3H345.3c-11,0-20-9-20-20s9-20,20-20h154.1c11,0,20,9,20,20S510.4,425.3,499.3,425.3z"/>
</g>
<g>
	<path d="M499.3,566.1H345.3c-11,0-20-9-20-20s9-20,20-20h154.1c11,0,20,9,20,20S510.4,566.1,499.3,566.1z"/>
</g>
<g>
	<path d="M499.3,692.1H345.3c-11,0-20-9-20-20s9-20,20-20h154.1c11,0,20,9,20,20S510.4,692.1,499.3,692.1z"/>
</g>
<g>
	<path d="M860,872.1H172.3c-11,0-20-9-20-20s9-20,20-20H860c11,0,20,9,20,20S871,872.1,860,872.1z"/>
</g>
<g>
	<path d="M732.1,692.1h-40c-11,0-20-9-20-20s9-20,20-20h40c11,0,20,9,20,20S743.1,692.1,732.1,692.1z"/>
</g>
</svg>
