<?xml version="1.0" encoding="utf-8"?>
<!-- Generator: Adobe Illustrator 18.0.0, SVG Export Plug-In . SVG Version: 6.00 Build 0)  -->
<!DOCTYPE svg PUBLIC "-//W3C//DTD SVG 1.1//EN" "http://www.w3.org/Graphics/SVG/1.1/DTD/svg11.dtd">
<svg version="1.1" id="图层_1" xmlns="http://www.w3.org/2000/svg" xmlns:xlink="http://www.w3.org/1999/xlink" x="0px" y="0px"
	 viewBox="0 0 1024 1024" style="enable-background:new 0 0 1024 1024;" xml:space="preserve">
<style type="text/css">
	.st0{fill:#040000;}
	.st1{fill:none;stroke:#040000;stroke-width:45;stroke-linecap:round;stroke-linejoin:round;stroke-miterlimit:10;}
</style>
<g>
	<path d="M592.1,921.5c-4.4,0-8.9-1.5-12.6-4.4c-8.6-6.9-9.9-19.5-3-28.1l283.8-351.2L568,183.5c-7-8.5-5.8-21.1,2.7-28.2
		c8.5-7,21.1-5.8,28.2,2.7l302.8,366.8c6.1,7.3,6.1,17.9,0.1,25.3l-294,363.9C603.8,919,598,921.5,592.1,921.5z"/>
</g>
<g>
	<path d="M886.2,557.6h-786c-11,0-20-9-20-20s9-20,20-20h786c11,0,20,9,20,20S897.2,557.6,886.2,557.6z"/>
</g>
</svg>
