<?xml version="1.0" encoding="utf-8"?>
<!-- Generator: Adobe Illustrator 18.0.0, SVG Export Plug-In . SVG Version: 6.00 Build 0)  -->
<!DOCTYPE svg PUBLIC "-//W3C//DTD SVG 1.1//EN" "http://www.w3.org/Graphics/SVG/1.1/DTD/svg11.dtd">
<svg version="1.1" id="图层_1" xmlns="http://www.w3.org/2000/svg" xmlns:xlink="http://www.w3.org/1999/xlink" x="0px" y="0px"
	 viewBox="0 0 1024 1024" style="enable-background:new 0 0 1024 1024;" xml:space="preserve">
<style type="text/css">
	.st0{fill:#040000;}
	.st1{fill:none;stroke:#040000;stroke-width:45;stroke-linecap:round;stroke-linejoin:round;stroke-miterlimit:10;}
</style>
<g>
	<path d="M791.1,869.7H203.8c-34.7,0-63-28.2-63-63V410.1c0-34.7,28.2-63,63-63h587.3c34.7,0,63,28.2,63,63v396.7
		C854.1,841.5,825.9,869.7,791.1,869.7z M203.8,387.1c-12.7,0-23,10.3-23,23v396.7c0,12.7,10.3,23,23,23h587.3c12.7,0,23-10.3,23-23
		V410.1c0-12.7-10.3-23-23-23H203.8z"/>
</g>
<g>
	<path d="M513.5,665.1c-18.3,0-36.6-6.5-51.3-19.4L169.3,387.9l26.4-30l292.9,257.8c14.4,12.7,36.1,12.5,50.3-0.4l271.9-247.3
		l26.9,29.6L565.8,644.8C550.9,658.3,532.2,665.1,513.5,665.1z"/>
</g>
<g>
	<rect x="248.4" y="498.6" transform="matrix(0.7071 0.7071 -0.7071 0.7071 538.7843 0.7838)" width="40" height="304.4"/>
</g>
<g>
	<rect x="600.8" y="612.8" transform="matrix(0.7071 0.7071 -0.7071 0.7071 663.4492 -336.1361)" width="273.3" height="40"/>
</g>
</svg>
