<?xml version="1.0" encoding="utf-8"?>
<!-- Generator: Adobe Illustrator 18.0.0, SVG Export Plug-In . SVG Version: 6.00 Build 0)  -->
<!DOCTYPE svg PUBLIC "-//W3C//DTD SVG 1.1//EN" "http://www.w3.org/Graphics/SVG/1.1/DTD/svg11.dtd">
<svg version="1.1" id="图层_1" xmlns="http://www.w3.org/2000/svg" xmlns:xlink="http://www.w3.org/1999/xlink" x="0px" y="0px"
	 viewBox="0 0 1000 1000" style="enable-background:new 0 0 1000 1000;" xml:space="preserve">
<style type="text/css">
	.st0{fill:#040000;}
	.st1{fill:none;stroke:#040000;stroke-width:50;stroke-miterlimit:10;}
	.st2{enable-background:new    ;}
</style>
<g>
	<path class="st0" d="M811.2,570.6H184.8c-18.3,0-33.2-14.9-33.2-33.2V390.6c0-18.3,14.9-33.2,33.2-33.2h626.5
		c18.3,0,33.2,14.9,33.2,33.2l0,147.3C844,556.2,829.5,570.6,811.2,570.6z M201.6,520.6h592.9V407.4H201.6V520.6z"/>
</g>
<g>
	<path class="st0" d="M775.3,890.8H218.2c-17.8,0-32.3-14.5-32.3-32.3V521.7h621.7v336.5c0.1,8.6-3.1,16.7-9.1,22.8
		C792.4,887.2,783.9,890.8,775.3,890.8z M235.8,840.8h521.7v-269H235.8V840.8z"/>
</g>
<g>
	<path class="st0" d="M521.7,865.8h-50V390.1c-23.8-33.6-60.4-62.6-101.4-80.3c-37.3-16-72.8-19.8-90.4-9.5
		c-5.9,3.5-7.2,6.7-7.8,9.7c-2.6,15,13.2,42.5,24.8,56.3l-38.3,32.1c-4.5-5.3-43.4-53.1-35.8-97c3.3-18.8,14.3-34.2,31.8-44.4
		c32.3-18.8,81.6-16.4,135.4,6.8c52.3,22.5,98.8,60.7,127.6,104.9l4.1,6.2V865.8z"/>
</g>
<g>
	<path class="st0" d="M515.7,398.7L477.8,366c41.8-48.5,87.3-85.3,131.6-106.4c48.1-23,91.7-26,126.1-8.8
		c16.6,8.3,28.1,21.9,33.2,39.5c12.7,43.7-19.2,98.8-22.9,104.9l-42.9-25.7l21.4,12.9l-21.5-12.8c8.1-13.6,23.1-47.4,17.8-65.3
		c-1.2-4.1-3.4-6.6-7.5-8.7c-19.8-9.9-48.9-6.6-82.2,9.2C592.9,323,553,355.4,515.7,398.7z"/>
</g>
</svg>
