<?xml version="1.0" encoding="utf-8"?>
<!-- Generator: Adobe Illustrator 18.0.0, SVG Export Plug-In . SVG Version: 6.00 Build 0)  -->
<!DOCTYPE svg PUBLIC "-//W3C//DTD SVG 1.1//EN" "http://www.w3.org/Graphics/SVG/1.1/DTD/svg11.dtd">
<svg version="1.1" id="图层_1" xmlns="http://www.w3.org/2000/svg" xmlns:xlink="http://www.w3.org/1999/xlink" x="0px" y="0px"
	 viewBox="0 0 1000 1000" style="enable-background:new 0 0 1000 1000;" xml:space="preserve">
<style type="text/css">
	.st0{fill:#040000;}
	.st1{fill:none;stroke:#040000;stroke-width:50;stroke-miterlimit:10;}
	.st2{enable-background:new    ;}
</style>
<g>
	<path class="st0" d="M870,309.6H510.3c-13.8,0-25-11.2-25-25s11.2-25,25-25H870c13.8,0,25,11.2,25,25S883.8,309.6,870,309.6z"/>
</g>
<g>
	<path class="st0" d="M346.3,309.6H220.5c-13.8,0-25-11.2-25-25s11.2-25,25-25h125.8c13.8,0,25,11.2,25,25S360.1,309.6,346.3,309.6z
		"/>
</g>
<g>
	<path class="st0" d="M870,548.1H671.5c-13.8,0-25-11.2-25-25s11.2-25,25-25H870c13.8,0,25,11.2,25,25S883.8,548.1,870,548.1z"/>
</g>
<g>
	<path class="st0" d="M507.5,548.1h-287c-13.8,0-25-11.2-25-25s11.2-25,25-25h287c13.8,0,25,11.2,25,25S521.3,548.1,507.5,548.1z"/>
</g>
<g>
	<path class="st0" d="M870,782.1H616.4c-13.8,0-25-11.2-25-25s11.2-25,25-25H870c13.8,0,25,11.2,25,25S883.8,782.1,870,782.1z"/>
</g>
<g>
	<path class="st0" d="M452.4,782.1H220.5c-13.8,0-25-11.2-25-25s11.2-25,25-25h231.9c13.8,0,25,11.2,25,25S466.3,782.1,452.4,782.1z
		"/>
</g>
<g>
	<path class="st0" d="M589.6,630c-59,0-106.9-48-106.9-106.9s48-106.9,106.9-106.9c59,0,106.9,48,106.9,106.9S648.5,630,589.6,630z
		 M589.6,466.1c-31.4,0-56.9,25.5-56.9,56.9s25.5,56.9,56.9,56.9s56.9-25.5,56.9-56.9S621,466.1,589.6,466.1z"/>
</g>
<g>
	<path class="st0" d="M428.3,391.5c-59,0-106.9-48-106.9-106.9s48-106.9,106.9-106.9c59,0,106.9,48,106.9,106.9
		S487.3,391.5,428.3,391.5z M428.3,227.6c-31.4,0-56.9,25.5-56.9,56.9s25.5,56.9,56.9,56.9s56.9-25.5,56.9-56.9
		S459.7,227.6,428.3,227.6z"/>
</g>
<g>
	<path class="st0" d="M534.5,864.1c-59,0-106.9-48-106.9-106.9s48-106.9,106.9-106.9s106.9,48,106.9,106.9S593.4,864.1,534.5,864.1z
		 M534.5,700.2c-31.4,0-56.9,25.5-56.9,56.9s25.5,56.9,56.9,56.9s56.9-25.5,56.9-56.9S565.9,700.2,534.5,700.2z"/>
</g>
</svg>
