<?xml version="1.0" encoding="utf-8"?>
<!-- Generator: Adobe Illustrator 18.0.0, SVG Export Plug-In . SVG Version: 6.00 Build 0)  -->
<!DOCTYPE svg PUBLIC "-//W3C//DTD SVG 1.1//EN" "http://www.w3.org/Graphics/SVG/1.1/DTD/svg11.dtd">
<svg version="1.1" id="图层_1" xmlns="http://www.w3.org/2000/svg" xmlns:xlink="http://www.w3.org/1999/xlink" x="0px" y="0px"
	 viewBox="0 0 1000 1000" enable-background="new 0 0 1000 1000" xml:space="preserve">
<g>
	<path d="M510.3,904.5c-97.6,0-190.7-36.6-262-103.1c-71-66.1-114.1-155.7-121.4-252.1c-1-13.8,9.3-25.8,23-26.8
		c13.8-1,25.8,9.3,26.8,23c13.1,173.3,159.6,309,333.6,309c184.5,0,334.5-150.1,334.5-334.5c0-184.5-150.1-334.5-334.5-334.5
		c-131.4,0-251.1,77.4-305.1,197.2c-5.7,12.6-20.5,18.2-33.1,12.5c-12.6-5.7-18.2-20.5-12.5-33.1c30-66.6,78.2-123.1,139.4-163.4
		c62.8-41.4,135.9-63.2,211.3-63.2c51.9,0,102.3,10.2,149.7,30.2c45.8,19.4,86.9,47.1,122.2,82.4s63,76.4,82.4,122.2
		c20.1,47.4,30.2,97.8,30.2,149.7c0,51.9-10.2,102.3-30.2,149.7c-19.4,45.8-47.1,86.9-82.4,122.2s-76.4,63-122.2,82.4
		C612.5,894.3,562.2,904.5,510.3,904.5z"/>
</g>
<g>
	<path d="M359.5,404.5H169.3c-13.8,0-25-11.2-25-25V170.7c0-13.8,11.2-25,25-25c13.8,0,25,11.2,25,25v183.8h165.2
		c13.8,0,25,11.2,25,25S373.3,404.5,359.5,404.5z"/>
</g>
</svg>
