<?xml version="1.0" encoding="utf-8"?>
<!-- Generator: Adobe Illustrator 18.0.0, SVG Export Plug-In . SVG Version: 6.00 Build 0)  -->
<!DOCTYPE svg PUBLIC "-//W3C//DTD SVG 1.1//EN" "http://www.w3.org/Graphics/SVG/1.1/DTD/svg11.dtd">
<svg version="1.1" id="图层_1" xmlns="http://www.w3.org/2000/svg" xmlns:xlink="http://www.w3.org/1999/xlink" x="0px" y="0px"
	 viewBox="0 0 1000 1000" enable-background="new 0 0 1000 1000" xml:space="preserve">
<g>
	<path d="M481.6,638c-67.3,0-123.4-52.6-127.7-119.8c-2.2-34.9,10.4-69.7,34.5-95.5c24.2-25.8,58.2-40.6,93.2-40.6
		c2.6,0,5.3,0.1,8,0.2c67.2,4.2,119.9,60.3,119.9,127.7C609.5,580.6,552.1,638,481.6,638z M481.6,432.2c-21.2,0-41.9,9-56.7,24.8
		c-15,15.9-22.4,36.6-21.1,58.1c2.6,40.9,36.7,73,77.8,73c43,0,77.9-35,77.9-77.9c0-41.1-32.1-75.2-73-77.8
		C484.8,432.2,483.2,432.2,481.6,432.2z"/>
</g>
<g>
	<path d="M619.5,894.9h-7c-7.2,0-14.3-2-19.9-5.6l-1.2-0.8l-3.1-2.6l-1.1-1.2c-3.5-3.8-16.3-17.1-34-30.2
		c-26.5-19.6-50.7-29.6-72-29.6c-21.1,0-45.1,9.8-71.4,29.1c-18.5,13.5-31.2,26.8-33.5,29.3l-0.9,1l-3,2.6l-1.4,0.9
		c-5.8,3.7-12.8,5.8-19.7,5.8h-1.5l-3.8-0.5l-3.6-1c-2-0.6-4-1.4-5.9-2.4l-101.2-56.6c-11.7-6.5-16.5-20.8-11.2-33.1l1.3-3.1
		c1.2-2.7,11.3-27.1,11.3-50.7c0-70.5-55.1-128.5-125.4-132.2l-3-0.2c-12.1-0.6-22.1-9.4-24.3-21.4l-0.5-2.9c-2-11-8.4-48.9-8.4-79
		c0-30.9,7-71.2,8.4-79l0.5-2.9c2.2-12,12.2-20.8,24.4-21.4l2.9-0.2c70.3-3.7,125.4-61.7,125.4-132.2c0-23.8-10.1-47.9-11.3-50.6
		c-6.1-14.2-0.5-30.5,13-38l110-60.4l8.1-0.4c7.7,0,15.2,2.1,21,6l1,0.7l2.7,2.2l1,1.1c2.4,2.5,15.3,15.5,33.4,28.4
		c26,18.5,49.6,27.9,70.3,27.9c20.5,0,44-9.2,69.8-27.4c18.6-13.1,31.5-26.1,32.9-27.6l0.7-0.7l2.4-2.1l1.3-0.9
		c5.8-4,13.1-6.2,20.4-6.3l0.3,0c2,0,3.9,0.2,5.8,0.7l2.4,0.5c2.5,0.6,4.8,1.4,6.9,2.6l103.2,57.3c11.7,6.5,16.6,20.8,11.3,33.1
		l-1.3,3.1c-1.2,2.7-11.3,27-11.3,50.7c0,70.5,55.1,128.5,125.4,132.2l3,0.2c12.2,0.6,22.2,9.4,24.3,21.4l0.5,2.9
		c1.4,7.8,8.4,48.1,8.4,79c0,30.2-6.4,68.1-8.4,79l-0.5,3c-2.2,12-12.2,20.7-24.3,21.4l-3,0.2c-70.3,3.6-125.4,61.7-125.4,132.2
		c0,23.7,10.1,47.9,11.3,50.6l1.3,3.1c5.4,12.4,0.5,26.7-11.4,33.2L619.5,894.9z M481.2,775c32.3,0,66.5,13.3,101.8,39.5
		c13,9.6,23.6,19.2,31.1,26.5l75.3-41.4c-4.3-13.6-9-32.9-9-53.1c0-91.6,67.5-167.9,156.5-180.5c2.3-14.8,5.1-37.2,5.1-55.1
		c0-17.7-2.9-40.4-5.1-55.1c-89-12.6-156.5-89-156.5-180.5c0-20.2,4.7-39.6,9-53.2l-74.3-41.3c-7.1,6.5-17.9,15.7-30.9,24.9
		c-34.4,24.2-67.5,36.5-98.5,36.5c-31.3,0-64.7-12.5-99.3-37.2c-13.1-9.4-23.9-18.7-31.2-25.5l-77.7,42.7
		c4.3,13.6,8.9,32.8,8.9,53.1c0,91.6-67.5,167.9-156.5,180.5c-2.2,14.8-5.1,37.4-5.1,55.1c0,18,2.9,40.3,5.1,55.1
		c89,12.6,156.5,89,156.5,180.5c0,20.3-4.7,39.6-9,53.3l71.7,40.1c7.3-6.9,17.9-16.4,31.1-26C415.2,788,449.2,775,481.2,775z"/>
</g>
</svg>
