<?xml version="1.0" encoding="utf-8"?>
<!-- Generator: Adobe Illustrator 18.0.0, SVG Export Plug-In . SVG Version: 6.00 Build 0)  -->
<!DOCTYPE svg PUBLIC "-//W3C//DTD SVG 1.1//EN" "http://www.w3.org/Graphics/SVG/1.1/DTD/svg11.dtd">
<svg version="1.1" id="图层_1" xmlns="http://www.w3.org/2000/svg" xmlns:xlink="http://www.w3.org/1999/xlink" x="0px" y="0px"
	 viewBox="0 0 1000 1000" style="enable-background:new 0 0 1000 1000;" xml:space="preserve">
<style type="text/css">
	.st0{fill-rule:evenodd;clip-rule:evenodd;fill:none;stroke:#020000;stroke-width:50;stroke-linecap:round;stroke-miterlimit:10;}
	
		.st1{fill-rule:evenodd;clip-rule:evenodd;fill:none;stroke:#020000;stroke-width:50;stroke-linecap:round;stroke-linejoin:round;stroke-miterlimit:10;}
	.st2{fill-rule:evenodd;clip-rule:evenodd;fill:none;stroke:#020000;stroke-width:50;stroke-miterlimit:10;}
	.st3{fill-rule:evenodd;clip-rule:evenodd;stroke:#020000;stroke-width:5;stroke-miterlimit:10;}
	.st4{fill:none;stroke:#000000;stroke-width:50;stroke-linecap:round;stroke-miterlimit:10;}
	.st5{fill:none;stroke:#000000;stroke-width:50;stroke-linecap:round;stroke-linejoin:round;stroke-miterlimit:10;}
	.st6{fill-rule:evenodd;clip-rule:evenodd;fill:none;stroke:#000000;stroke-width:50;stroke-miterlimit:10;}
	.st7{fill:none;stroke:#000000;stroke-width:50;stroke-miterlimit:10;}
	.st8{fill:none;stroke:#020202;stroke-width:50;stroke-linecap:round;stroke-miterlimit:10;}
	.st9{fill:#5A9BFD;stroke:#5A9BFD;stroke-width:40;stroke-linecap:round;stroke-miterlimit:10;}
	.st10{fill:none;stroke:#FFFFFF;stroke-width:40;stroke-linecap:round;stroke-miterlimit:10;}
	.st11{fill:none;stroke:#000000;stroke-width:40;stroke-linecap:round;stroke-linejoin:round;stroke-miterlimit:10;}
	.st12{fill:none;stroke:#020000;stroke-width:50;stroke-linecap:round;stroke-miterlimit:10;}
	.st13{fill:none;stroke:#020000;stroke-width:50;stroke-linecap:round;stroke-linejoin:round;stroke-miterlimit:10;}
	.st14{fill-rule:evenodd;clip-rule:evenodd;fill:none;stroke:#000000;stroke-width:50;stroke-linecap:round;stroke-miterlimit:10;}
	
		.st15{fill-rule:evenodd;clip-rule:evenodd;fill:none;stroke:#000000;stroke-width:50;stroke-linecap:round;stroke-linejoin:round;stroke-miterlimit:10;}
	.st16{fill-rule:evenodd;clip-rule:evenodd;}
	.st17{fill:none;}
</style>
<path class="st4" d="M549.7,800.2l221.2-390c7.1-12.5,12-26.3,14-40.5C807.6,209.7,667,92.5,523.7,121.9
	c-59.4,12.2-110.1,50.6-139.1,103.9L180.8,601.1"/>
<line class="st4" x1="306.6" y1="668.9" x2="503.7" y2="292.9"/>
<line class="st4" x1="425.4" y1="754.1" x2="632.2" y2="359.2"/>
<path class="st4" d="M500.1,299.1c12.3-28.5,41.9-46.9,74.4-43.5c40,4.2,69,40,64.8,79.9c-0.8,7.5-2.7,14.7-5.5,21.3"/>
<path class="st4" d="M425.4,754.1c-26.2,35.1-68,54.5-115.2,54.5c-79.2,0-143.5-64.2-143.5-143.5c0-19.7,6.9-47,14.1-64.1"/>
</svg>
