<?xml version="1.0" encoding="utf-8"?>
<!-- Generator: Adobe Illustrator 18.0.0, SVG Export Plug-In . SVG Version: 6.00 Build 0)  -->
<!DOCTYPE svg PUBLIC "-//W3C//DTD SVG 1.1//EN" "http://www.w3.org/Graphics/SVG/1.1/DTD/svg11.dtd">
<svg version="1.1" id="图层_1" xmlns="http://www.w3.org/2000/svg" xmlns:xlink="http://www.w3.org/1999/xlink" x="0px" y="0px"
	 viewBox="0 0 1000 1000" style="enable-background:new 0 0 1000 1000;" xml:space="preserve">
<style type="text/css">
	.st0{fill:#020000;}
	.st1{fill-rule:evenodd;clip-rule:evenodd;}
	.st2{fill:#020202;}
	.st3{fill:#5A9BFD;stroke:#5A9BFD;stroke-width:40;stroke-linecap:round;stroke-miterlimit:10;}
	.st4{fill:none;stroke:#FFFFFF;stroke-width:40;stroke-linecap:round;stroke-miterlimit:10;}
	.st5{fill:none;stroke:#020000;stroke-width:50;stroke-linecap:round;stroke-miterlimit:10;}
	.st6{fill:none;}
	.st7{fill:none;stroke:#000000;stroke-width:50;stroke-linecap:round;stroke-linejoin:round;stroke-miterlimit:10;}
</style>
<g>
	<path d="M406.4,491.8H234.3c-34.5,0-62.5-28-62.5-62.5V257.2c0-34.5,28-62.5,62.5-62.5h172.1c34.5,0,62.5,28,62.5,62.5v172.1
		C468.9,463.7,440.8,491.8,406.4,491.8z M234.3,244.7c-6.8,0-12.5,5.7-12.5,12.5v172.1c0,6.8,5.7,12.5,12.5,12.5h172.1
		c6.8,0,12.5-5.7,12.5-12.5V257.2c0-6.8-5.7-12.5-12.5-12.5H234.3z"/>
</g>
<g>
	<path d="M750.7,491.8H578.6c-34.5,0-62.5-28-62.5-62.5V257.2c0-34.5,28-62.5,62.5-62.5h172.1c34.5,0,62.5,28,62.5,62.5v172.1
		C813.2,463.7,785.2,491.8,750.7,491.8z M578.6,244.7c-6.8,0-12.5,5.7-12.5,12.5v172.1c0,6.8,5.7,12.5,12.5,12.5h172.1
		c6.8,0,12.5-5.7,12.5-12.5V257.2c0-6.8-5.7-12.5-12.5-12.5H578.6z"/>
</g>
<g>
	<path d="M406.4,828.2H234.3c-34.5,0-62.5-28-62.5-62.5V593.6c0-34.5,28-62.5,62.5-62.5h172.1c34.5,0,62.5,28,62.5,62.5v172.1
		C468.9,800.1,440.8,828.2,406.4,828.2z M234.3,581.1c-6.8,0-12.5,5.7-12.5,12.5v172.1c0,6.8,5.7,12.5,12.5,12.5h172.1
		c6.8,0,12.5-5.7,12.5-12.5V593.6c0-6.8-5.7-12.5-12.5-12.5H234.3z"/>
</g>
<g>
	<path d="M750.7,828.2H578.6c-34.5,0-62.5-28-62.5-62.5V593.6c0-34.5,28-62.5,62.5-62.5h172.1c34.5,0,62.5,28,62.5,62.5v172.1
		C813.2,800.1,785.2,828.2,750.7,828.2z M578.6,581.1c-6.8,0-12.5,5.7-12.5,12.5v172.1c0,6.8,5.7,12.5,12.5,12.5h172.1
		c6.8,0,12.5-5.7,12.5-12.5V593.6c0-6.8-5.7-12.5-12.5-12.5H578.6z"/>
</g>
</svg>
