<?xml version="1.0" encoding="utf-8"?>
<!-- Generator: Adobe Illustrator 18.0.0, SVG Export Plug-In . SVG Version: 6.00 Build 0)  -->
<!DOCTYPE svg PUBLIC "-//W3C//DTD SVG 1.1//EN" "http://www.w3.org/Graphics/SVG/1.1/DTD/svg11.dtd">
<svg version="1.1" id="图层_1" xmlns="http://www.w3.org/2000/svg" xmlns:xlink="http://www.w3.org/1999/xlink" x="0px" y="0px"
	 viewBox="0 0 1000 1000" style="enable-background:new 0 0 1000 1000;" xml:space="preserve">
<style type="text/css">
	.st0{fill:#020000;}
	.st1{fill-rule:evenodd;clip-rule:evenodd;}
	.st2{fill:#020202;}
	.st3{fill:#5A9BFD;stroke:#5A9BFD;stroke-width:40;stroke-linecap:round;stroke-miterlimit:10;}
	.st4{fill:none;stroke:#FFFFFF;stroke-width:40;stroke-linecap:round;stroke-miterlimit:10;}
	.st5{fill:none;stroke:#020000;stroke-width:50;stroke-linecap:round;stroke-miterlimit:10;}
	.st6{fill:none;}
	.st7{fill:none;stroke:#000000;stroke-width:50;stroke-linecap:round;stroke-linejoin:round;stroke-miterlimit:10;}
</style>
<g>
	<path d="M816.9,766.5h-650c-13.8,0-25-11.2-25-25s11.2-25,25-25h650c13.8,0,25,11.2,25,25S830.7,766.5,816.9,766.5z"/>
</g>
<g>
	<path d="M234.4,691.1C234.4,691.1,234.4,691.1,234.4,691.1c-8.1,0-15.9-3.9-20.7-10.3c-4.9-6.5-6.5-15-4.3-22.8l43.4-155
		c1.2-4.3,3.5-8.3,6.7-11.4l385-386c4.9-4.9,11.5-7.6,18.4-7.6c6.8,0,13.2,2.6,18.1,7.3l114.5,110.6c5,4.8,7.9,11.5,8,18.4
		c0.1,6.9-2.7,13.7-7.6,18.6l-382,385c-3.1,3.2-7.1,5.5-11.4,6.7l-161,45.4C239.1,690.7,236.8,691.1,234.4,691.1z M299.2,522.6
		L269,630.4l113.8-32.1l360.5-363.3l-80.1-77.3L299.2,522.6z"/>
</g>
<g>
	<path d="M403.8,637.5c-6.3,0-12.7-2.4-17.6-7.2L270.6,516c-9.8-9.7-9.9-25.5-0.2-35.4c9.7-9.8,25.5-9.9,35.4-0.2l115.7,114.3
		c9.8,9.7,9.9,25.5,0.2,35.4C416.7,635,410.3,637.5,403.8,637.5z"/>
</g>
</svg>
