<?xml version="1.0" encoding="utf-8"?>
<!-- Generator: Adobe Illustrator 18.0.0, SVG Export Plug-In . SVG Version: 6.00 Build 0)  -->
<!DOCTYPE svg PUBLIC "-//W3C//DTD SVG 1.1//EN" "http://www.w3.org/Graphics/SVG/1.1/DTD/svg11.dtd">
<svg version="1.1" id="图层_1" xmlns="http://www.w3.org/2000/svg" xmlns:xlink="http://www.w3.org/1999/xlink" x="0px" y="0px"
	 viewBox="0 0 1000 1000" style="enable-background:new 0 0 1000 1000;" xml:space="preserve">
<style type="text/css">
	.st0{fill-rule:evenodd;clip-rule:evenodd;fill:none;stroke:#020000;stroke-width:50;stroke-linecap:round;stroke-miterlimit:10;}
	
		.st1{fill-rule:evenodd;clip-rule:evenodd;fill:none;stroke:#020000;stroke-width:50;stroke-linecap:round;stroke-linejoin:round;stroke-miterlimit:10;}
	.st2{fill-rule:evenodd;clip-rule:evenodd;fill:none;stroke:#020000;stroke-width:50;stroke-miterlimit:10;}
	.st3{fill-rule:evenodd;clip-rule:evenodd;stroke:#020000;stroke-width:5;stroke-miterlimit:10;}
	.st4{fill:none;stroke:#000000;stroke-width:50;stroke-linecap:round;stroke-miterlimit:10;}
	.st5{fill:none;stroke:#000000;stroke-width:50;stroke-linecap:round;stroke-linejoin:round;stroke-miterlimit:10;}
	.st6{fill-rule:evenodd;clip-rule:evenodd;fill:none;stroke:#000000;stroke-width:50;stroke-miterlimit:10;}
	.st7{fill:none;stroke:#000000;stroke-width:50;stroke-miterlimit:10;}
	.st8{fill:none;stroke:#020202;stroke-width:50;stroke-linecap:round;stroke-miterlimit:10;}
	.st9{fill:#5A9BFD;stroke:#5A9BFD;stroke-width:40;stroke-linecap:round;stroke-miterlimit:10;}
	.st10{fill:none;stroke:#FFFFFF;stroke-width:40;stroke-linecap:round;stroke-miterlimit:10;}
	.st11{fill:none;stroke:#000000;stroke-width:40;stroke-linecap:round;stroke-linejoin:round;stroke-miterlimit:10;}
	.st12{fill:none;stroke:#020000;stroke-width:50;stroke-linecap:round;stroke-miterlimit:10;}
	.st13{fill:none;stroke:#020000;stroke-width:50;stroke-linecap:round;stroke-linejoin:round;stroke-miterlimit:10;}
	.st14{fill-rule:evenodd;clip-rule:evenodd;fill:none;stroke:#000000;stroke-width:50;stroke-linecap:round;stroke-miterlimit:10;}
	
		.st15{fill-rule:evenodd;clip-rule:evenodd;fill:none;stroke:#000000;stroke-width:50;stroke-linecap:round;stroke-linejoin:round;stroke-miterlimit:10;}
	.st16{fill-rule:evenodd;clip-rule:evenodd;}
	.st17{fill:none;}
</style>
<path class="st0" d="M301.7,374.9l275.9-176.4c14-8.9,32.3,1.1,32.3,17.7v580.3c0,16.4-18,26.5-32,17.9L302.1,645.1
	c-6.2-3.8-10-10.6-10-17.9V392.6C292.1,385.4,295.7,378.8,301.7,374.9z"/>
<path class="st0" d="M292.1,426.1v182.7c0,16.6-13.5,30.1-30.1,30.1h-96.7c-16.6,0-30.1-13.5-30.1-30.1V426.1
	c0-16.6,13.5-30.1,30.1-30.1h48.4"/>
<path class="st0" d="M745.2,350.9C817.9,378.8,868.9,444,868.9,520c0,75.9-50.9,141.1-123.5,169"/>
<path class="st0" d="M689.7,453.2c38.2,5.5,67.3,32.2,67.3,64.3c0,30.9-26.8,56.7-62.9,63.5"/>
</svg>
