<?xml version="1.0" encoding="utf-8"?>
<!-- Generator: Adobe Illustrator 18.0.0, SVG Export Plug-In . SVG Version: 6.00 Build 0)  -->
<!DOCTYPE svg PUBLIC "-//W3C//DTD SVG 1.1//EN" "http://www.w3.org/Graphics/SVG/1.1/DTD/svg11.dtd">
<svg version="1.1" id="图层_1" xmlns="http://www.w3.org/2000/svg" xmlns:xlink="http://www.w3.org/1999/xlink" x="0px" y="0px"
	 viewBox="0 0 1000 1000" style="enable-background:new 0 0 1000 1000;" xml:space="preserve">
<style type="text/css">
	.st0{fill:#020000;}
	.st1{fill-rule:evenodd;clip-rule:evenodd;}
	.st2{fill:#020202;}
	.st3{fill:#5A9BFD;stroke:#5A9BFD;stroke-width:40;stroke-linecap:round;stroke-miterlimit:10;}
	.st4{fill:none;stroke:#FFFFFF;stroke-width:40;stroke-linecap:round;stroke-miterlimit:10;}
	.st5{fill:none;stroke:#020000;stroke-width:50;stroke-linecap:round;stroke-miterlimit:10;}
	.st6{fill:none;}
	.st7{fill:none;stroke:#000000;stroke-width:50;stroke-linecap:round;stroke-linejoin:round;stroke-miterlimit:10;}
</style>
<g>
	<path class="st0" d="M588.9,842.5c-8.4,0-16.7-2.4-24-6.8L289,666.4c-13.5-8.3-22-23.3-22-39.2V392.6c0-15.8,7.9-30.3,21.2-38.8
		l275.9-176.4c7.5-4.8,16-7.3,24.7-7.3c25.4,0,46.1,20.7,46.1,46v580.3C635,821.8,614.3,842.5,588.9,842.5z M317.1,625L585,789.3
		V223.5L317.1,394.8V625z"/>
</g>
<g>
	<path class="st0" d="M261.9,664h-96.7c-30.4,0-55.1-24.7-55.1-55.1V426.1c0-30.4,24.7-55.1,55.1-55.1h48.4c13.8,0,25,11.2,25,25
		s-11.2,25-25,25h-48.4c-2.8,0-5.1,2.3-5.1,5.1v182.7c0,2.8,2.3,5.1,5.1,5.1h96.7c2.8,0,5.1-2.3,5.1-5.1V426.1c0-13.8,11.2-25,25-25
		s25,11.2,25,25v182.7C317.1,639.2,292.3,664,261.9,664z"/>
</g>
<g>
	<path class="st0" d="M745.4,713.9c-10,0-19.5-6.1-23.3-16c-5-12.9,1.5-27.4,14.4-32.3c65.3-25.1,107.4-82.3,107.4-145.6
		c0-63.5-42.2-120.7-107.6-145.7c-12.9-4.9-19.3-19.4-14.4-32.3c4.9-12.9,19.4-19.3,32.3-14.4c40.6,15.6,75.3,41.5,100.2,74.9
		c25.9,34.7,39.5,75.3,39.5,117.5c0,42.2-13.6,82.8-39.5,117.4c-24.9,33.4-59.5,59.3-100,74.9C751.5,713.4,748.4,713.9,745.4,713.9z
		"/>
</g>
<g>
	<path class="st0" d="M694,606c-11.8,0-22.3-8.4-24.5-20.4c-2.6-13.6,6.4-26.6,19.9-29.2c24.7-4.7,42.6-21,42.6-39
		c0-18.8-19.7-35.8-45.8-39.5c-13.7-2-23.2-14.6-21.2-28.3c2-13.7,14.6-23.2,28.3-21.2c51.4,7.4,88.7,44.8,88.7,89
		c0,21.5-9,42.3-25.3,58.5c-14.9,14.8-35.5,25.4-58,29.6C697.1,605.9,695.5,606,694,606z"/>
</g>
</svg>
