<?xml version="1.0" encoding="utf-8"?>
<!-- Generator: Adobe Illustrator 18.0.0, SVG Export Plug-In . SVG Version: 6.00 Build 0)  -->
<!DOCTYPE svg PUBLIC "-//W3C//DTD SVG 1.1//EN" "http://www.w3.org/Graphics/SVG/1.1/DTD/svg11.dtd">
<svg version="1.1" id="图层_1" xmlns="http://www.w3.org/2000/svg" xmlns:xlink="http://www.w3.org/1999/xlink" x="0px" y="0px"
	 viewBox="0 0 1000 1000" style="enable-background:new 0 0 1000 1000;" xml:space="preserve">
<style type="text/css">
	.st0{fill:#020000;}
	.st1{fill-rule:evenodd;clip-rule:evenodd;}
	.st2{fill:#020202;}
	.st3{fill:#5A9BFD;stroke:#5A9BFD;stroke-width:40;stroke-linecap:round;stroke-miterlimit:10;}
	.st4{fill:none;stroke:#FFFFFF;stroke-width:40;stroke-linecap:round;stroke-miterlimit:10;}
	.st5{fill:none;stroke:#020000;stroke-width:50;stroke-linecap:round;stroke-miterlimit:10;}
	.st6{fill:none;}
	.st7{fill:none;stroke:#000000;stroke-width:50;stroke-linecap:round;stroke-linejoin:round;stroke-miterlimit:10;}
</style>
<g>
	<path class="st0" d="M189.9,529.9c-6.4,0-12.8-2.4-17.7-7.3c-9.8-9.8-9.8-25.6,0-35.4L374,285.4c17-17,44.7-17,61.7,0l111.8,111.8
		l191.7-191.7c9.8-9.8,25.6-9.8,35.4,0c9.8,9.8,9.8,25.6,0,35.4L578.3,437c-17,17-44.7,17-61.7,0L404.9,325.3L207.6,522.6
		C202.7,527.4,196.3,529.9,189.9,529.9z"/>
</g>
<g>
	<path class="st0" d="M774.4,389c-13.8,0-25-11.2-25-25V237.6H618.1c-13.8,0-25-11.2-25-25s11.2-25,25-25h156.3
		c13.8,0,25,11.2,25,25V364C799.4,377.8,788.2,389,774.4,389z"/>
</g>
<g>
	<path class="st0" d="M237.7,832.6c-13.8,0-25-11.2-25-25V644.3c0-13.8,11.2-25,25-25s25,11.2,25,25v163.3
		C262.7,821.4,251.5,832.6,237.7,832.6z"/>
</g>
<g>
	<path class="st0" d="M585.4,832.6c-13.8,0-25-11.2-25-25V620.9c0-13.8,11.2-25,25-25s25,11.2,25,25v186.7
		C610.4,821.4,599.2,832.6,585.4,832.6z"/>
</g>
<g>
	<path class="st0" d="M411.6,832.6c-13.8,0-25-11.2-25-25V519.8c0-13.8,11.2-25,25-25s25,11.2,25,25v287.8
		C436.6,821.4,425.4,832.6,411.6,832.6z"/>
</g>
<g>
	<path class="st0" d="M756.9,832.6c-13.8,0-25-11.2-25-25V519.8c0-13.8,11.2-25,25-25s25,11.2,25,25v287.8
		C781.9,821.4,770.7,832.6,756.9,832.6z"/>
</g>
</svg>
