<?xml version="1.0" encoding="utf-8"?>
<!-- Generator: Adobe Illustrator 18.0.0, SVG Export Plug-In . SVG Version: 6.00 Build 0)  -->
<!DOCTYPE svg PUBLIC "-//W3C//DTD SVG 1.1//EN" "http://www.w3.org/Graphics/SVG/1.1/DTD/svg11.dtd">
<svg version="1.1" id="图层_1" xmlns="http://www.w3.org/2000/svg" xmlns:xlink="http://www.w3.org/1999/xlink" x="0px" y="0px"
	 viewBox="0 0 1000 1000" style="enable-background:new 0 0 1000 1000;" xml:space="preserve">
<style type="text/css">
	.st0{fill:#020000;}
	.st1{fill-rule:evenodd;clip-rule:evenodd;}
	.st2{fill:#020202;}
	.st3{fill:#5A9BFD;stroke:#5A9BFD;stroke-width:40;stroke-linecap:round;stroke-miterlimit:10;}
	.st4{fill:none;stroke:#FFFFFF;stroke-width:40;stroke-linecap:round;stroke-miterlimit:10;}
	.st5{fill:none;stroke:#020000;stroke-width:50;stroke-linecap:round;stroke-miterlimit:10;}
	.st6{fill:none;}
	.st7{fill:none;stroke:#000000;stroke-width:50;stroke-linecap:round;stroke-linejoin:round;stroke-miterlimit:10;}
</style>
<g>
	<g>
		<path d="M746.4,359.1c-11,0-20-9-20-20c0-120.2-97.8-218-218-218s-218,97.8-218,218c0,11-9,20-20,20s-20-9-20-20
			c0-68.7,26.9-133.4,75.8-182.3C375,108,439.7,81.1,508.3,81.1c68.7,0,133.4,26.9,182.3,75.8c48.9,48.9,75.8,113.6,75.8,182.3
			C766.4,350.1,757.4,359.1,746.4,359.1z"/>
	</g>
	<g>
		<path d="M824.6,773.6H202.1c-19.4,0-36.8-10.1-46.5-26.9c-9.7-16.9-9.6-37,0.3-53.7l53.3-90.9c26.9-45.8,41.1-98.1,41.1-151.3
			V344.1c0-11,9-20,20-20s20,9,20,20v106.5c0,60.2-16.1,119.5-46.6,171.5l-53.3,90.9c-3.6,6.1-1.2,11.6-0.1,13.6
			c1.2,2.1,4.7,6.8,11.8,6.8h622.4c6,0,9-4.1,10-5.8c1-1.7,3-6.4,0-11.6l-50.5-86.8c-33.3-57.3-52-122.6-54-188.8l-2.8-76.5
			c-0.6-1.9-0.9-3.9-0.9-6v-19c0-10.9,8.7-19.8,19.6-20c0.1,0,0.3,0,0.4,0c10.7,0,19.6,8.5,20,19.3l3.7,100.8c0,0,0,0.1,0,0.1
			c1.8,59.6,18.6,118.4,48.6,170l50.5,86.8c9.4,16.1,9.4,35.5,0.1,51.6C860,763.9,843.2,773.6,824.6,773.6z"/>
	</g>
</g>
<g>
	<path d="M510.7,917.1c-76.9,0-139.5-62.6-139.5-139.5c0-11,9-20,20-20s20,9,20,20c0,54.9,44.6,99.5,99.5,99.5
		c54.9,0,99.5-44.6,99.5-99.5c0-11,9-20,20-20s20,9,20,20C650.2,854.5,587.6,917.1,510.7,917.1z"/>
</g>
</svg>
