<?xml version="1.0" encoding="utf-8"?>
<!-- Generator: Adobe Illustrator 18.0.0, SVG Export Plug-In . SVG Version: 6.00 Build 0)  -->
<!DOCTYPE svg PUBLIC "-//W3C//DTD SVG 1.1//EN" "http://www.w3.org/Graphics/SVG/1.1/DTD/svg11.dtd">
<svg version="1.1" id="图层_1" xmlns="http://www.w3.org/2000/svg" xmlns:xlink="http://www.w3.org/1999/xlink" x="0px" y="0px"
	 viewBox="0 0 1000 1000" style="enable-background:new 0 0 1000 1000;" xml:space="preserve">
<style type="text/css">
	.st0{fill:#020000;}
	.st1{fill-rule:evenodd;clip-rule:evenodd;}
	.st2{fill:#020202;}
	.st3{fill:#5A9BFD;stroke:#5A9BFD;stroke-width:40;stroke-linecap:round;stroke-miterlimit:10;}
	.st4{fill:none;stroke:#FFFFFF;stroke-width:40;stroke-linecap:round;stroke-miterlimit:10;}
	.st5{fill:none;stroke:#020000;stroke-width:50;stroke-linecap:round;stroke-miterlimit:10;}
	.st6{fill:none;}
	.st7{fill:none;stroke:#000000;stroke-width:50;stroke-linecap:round;stroke-linejoin:round;stroke-miterlimit:10;}
</style>
<g>
	<path d="M501.5,915.5c-56.4,0-111.1-11-162.6-32.8c-49.7-21-94.4-51.2-132.8-89.5c-38.4-38.4-68.5-83-89.5-132.8
		c-21.8-51.5-32.8-106.2-32.8-162.6c0-56.4,11-111.1,32.8-162.6c21-49.7,51.2-94.4,89.5-132.8c38.4-38.4,83-68.5,132.8-89.5
		c51.5-21.8,106.2-32.8,162.6-32.8s111.1,11,162.6,32.8c49.7,21,94.4,51.2,132.8,89.5s68.5,83,89.5,132.8
		c21.8,51.5,32.8,106.2,32.8,162.6s-11,111.1-32.8,162.6c-21,49.7-51.2,94.4-89.5,132.8c-38.4,38.4-83,68.5-132.8,89.5
		C612.6,904.5,557.9,915.5,501.5,915.5z M501.5,130.1c-98.2,0-190.6,38.3-260,107.7c-69.5,69.5-107.7,161.8-107.7,260
		c0,202.8,165,367.7,367.7,367.7c202.8,0,367.7-165,367.7-367.7S704.3,130.1,501.5,130.1z"/>
</g>
<g>
	<path d="M505.2,688.9c-13.8,0-25-11.2-25-25c0-13.8,11.2-25,25-25c79.9,0,144.8-65,144.8-144.8s-65-144.8-144.8-144.8
		c-38.7,0-75.1,15.1-102.4,42.4c-9.8,9.8-25.6,9.8-35.4,0c-9.8-9.8-9.8-25.6,0-35.4c36.8-36.8,85.7-57.1,137.8-57.1
		c107.4,0,194.8,87.4,194.8,194.8S612.7,688.9,505.2,688.9z"/>
</g>
<g>
	<path d="M481.5,540.5c-7.3,0-14.6-3.2-19.5-9.4L225.5,235.8c-8.6-10.8-6.9-26.5,3.9-35.1c10.8-8.6,26.5-6.9,35.1,3.9L501,499.9
		c8.6,10.8,6.9,26.5-3.9,35.1C492.5,538.7,486.9,540.5,481.5,540.5z"/>
</g>
</svg>
