<?xml version="1.0" encoding="utf-8"?>
<!-- Generator: Adobe Illustrator 18.0.0, SVG Export Plug-In . SVG Version: 6.00 Build 0)  -->
<!DOCTYPE svg PUBLIC "-//W3C//DTD SVG 1.1//EN" "http://www.w3.org/Graphics/SVG/1.1/DTD/svg11.dtd">
<svg version="1.1" id="图层_1" xmlns="http://www.w3.org/2000/svg" xmlns:xlink="http://www.w3.org/1999/xlink" x="0px" y="0px"
	 viewBox="0 0 1000 1000" style="enable-background:new 0 0 1000 1000;" xml:space="preserve">
<style type="text/css">
	.st0{fill:#020000;}
	.st1{fill-rule:evenodd;clip-rule:evenodd;}
	.st2{fill:#020202;}
	.st3{fill:#5A9BFD;stroke:#5A9BFD;stroke-width:40;stroke-linecap:round;stroke-miterlimit:10;}
	.st4{fill:none;stroke:#FFFFFF;stroke-width:40;stroke-linecap:round;stroke-miterlimit:10;}
	.st5{fill:none;stroke:#020000;stroke-width:50;stroke-linecap:round;stroke-miterlimit:10;}
	.st6{fill:none;}
	.st7{fill:none;stroke:#000000;stroke-width:50;stroke-linecap:round;stroke-linejoin:round;stroke-miterlimit:10;}
</style>
<g>
	<path d="M423.3,799.5h-179c-70.2,0-127.2-57.1-127.2-127.2V365.4c0-70.2,57.1-127.2,127.2-127.2h179c27.7,0,50.4,22.6,50.6,50.5
		v460.2C473.9,776.8,451.2,799.5,423.3,799.5z M244.4,288.2c-42.6,0-77.2,34.6-77.2,77.2v306.8c0,42.6,34.7,77.2,77.2,77.2h179
		c0.3,0,0.6-0.3,0.6-0.6v-460c0-0.5-0.4-0.7-0.6-0.7H244.4z"/>
</g>
<g>
	<path d="M755.6,799.6h-179c-27.9,0-50.6-22.7-50.6-50.6V288.8c0-27.9,22.7-50.6,50.6-50.6h179c34,0,66,13.3,90.1,37.3
		c24,24.1,37.2,56,37.2,90v306.8C882.9,742.6,825.8,799.6,755.6,799.6z M576.7,288.2c-0.4,0-0.6,0.2-0.6,0.6V749
		c0,0.3,0.3,0.6,0.6,0.6h179c42.6,0,77.2-34.6,77.2-77.2V365.5c0-20.7-8-40.1-22.6-54.7c-14.6-14.6-34-22.7-54.7-22.7H576.7z"/>
</g>
</svg>
