<?xml version="1.0" encoding="utf-8"?>
<!-- Generator: Adobe Illustrator 18.0.0, SVG Export Plug-In . SVG Version: 6.00 Build 0)  -->
<!DOCTYPE svg PUBLIC "-//W3C//DTD SVG 1.1//EN" "http://www.w3.org/Graphics/SVG/1.1/DTD/svg11.dtd">
<svg version="1.1" id="图层_1" xmlns="http://www.w3.org/2000/svg" xmlns:xlink="http://www.w3.org/1999/xlink" x="0px" y="0px"
	 viewBox="0 0 1000 1000" style="enable-background:new 0 0 1000 1000;" xml:space="preserve">
<style type="text/css">
	.st0{fill-rule:evenodd;clip-rule:evenodd;fill:none;stroke:#020000;stroke-width:50;stroke-linecap:round;stroke-miterlimit:10;}
	
		.st1{fill-rule:evenodd;clip-rule:evenodd;fill:none;stroke:#020000;stroke-width:50;stroke-linecap:round;stroke-linejoin:round;stroke-miterlimit:10;}
	.st2{fill-rule:evenodd;clip-rule:evenodd;fill:none;stroke:#020000;stroke-width:50;stroke-miterlimit:10;}
	.st3{fill-rule:evenodd;clip-rule:evenodd;stroke:#020000;stroke-width:5;stroke-miterlimit:10;}
	.st4{fill:none;stroke:#000000;stroke-width:50;stroke-linecap:round;stroke-miterlimit:10;}
	.st5{fill:none;stroke:#000000;stroke-width:50;stroke-linecap:round;stroke-linejoin:round;stroke-miterlimit:10;}
	.st6{fill-rule:evenodd;clip-rule:evenodd;fill:none;stroke:#000000;stroke-width:50;stroke-miterlimit:10;}
	.st7{fill:none;stroke:#000000;stroke-width:50;stroke-miterlimit:10;}
	.st8{fill:none;stroke:#020202;stroke-width:50;stroke-linecap:round;stroke-miterlimit:10;}
	.st9{fill:#5A9BFD;stroke:#5A9BFD;stroke-width:40;stroke-linecap:round;stroke-miterlimit:10;}
	.st10{fill:none;stroke:#FFFFFF;stroke-width:40;stroke-linecap:round;stroke-miterlimit:10;}
	.st11{fill:none;stroke:#000000;stroke-width:40;stroke-linecap:round;stroke-linejoin:round;stroke-miterlimit:10;}
	.st12{fill:none;stroke:#020000;stroke-width:50;stroke-linecap:round;stroke-miterlimit:10;}
	.st13{fill:none;stroke:#020000;stroke-width:50;stroke-linecap:round;stroke-linejoin:round;stroke-miterlimit:10;}
	.st14{fill-rule:evenodd;clip-rule:evenodd;fill:none;stroke:#000000;stroke-width:50;stroke-linecap:round;stroke-miterlimit:10;}
	
		.st15{fill-rule:evenodd;clip-rule:evenodd;fill:none;stroke:#000000;stroke-width:50;stroke-linecap:round;stroke-linejoin:round;stroke-miterlimit:10;}
	.st16{fill-rule:evenodd;clip-rule:evenodd;}
	.st17{fill:none;}
</style>
<path class="st5" d="M726.4,781.8H677c-24.6,0-44.8-20.2-44.8-44.8V250c0-24.6,20.2-44.8,44.8-44.8h49.5c24.6,0,44.8,20.2,44.8,44.8
	v487C771.2,761.6,751.1,781.8,726.4,781.8z"/>
<path class="st5" d="M493.1,781.8h-49.5c-24.6,0-44.8-20.2-44.8-44.8V486.1c0-24.6,20.2-44.8,44.8-44.8h49.5
	c24.6,0,44.8,20.2,44.8,44.8V737C537.9,761.6,517.7,781.8,493.1,781.8z"/>
<path class="st5" d="M274.6,781.8h-49.5c-24.6,0-44.8-20.2-44.8-44.8V375.4c0-24.6,20.2-44.8,44.8-44.8h49.5
	c24.6,0,44.8,20.2,44.8,44.8V737C319.4,761.6,299.3,781.8,274.6,781.8z"/>
</svg>
