<?xml version="1.0" encoding="utf-8"?>
<!-- Generator: Adobe Illustrator 18.0.0, SVG Export Plug-In . SVG Version: 6.00 Build 0)  -->
<!DOCTYPE svg PUBLIC "-//W3C//DTD SVG 1.1//EN" "http://www.w3.org/Graphics/SVG/1.1/DTD/svg11.dtd">
<svg version="1.1" id="图层_1" xmlns="http://www.w3.org/2000/svg" xmlns:xlink="http://www.w3.org/1999/xlink" x="0px" y="0px"
	 viewBox="0 0 1000 1000" style="enable-background:new 0 0 1000 1000;" xml:space="preserve">
<style type="text/css">
	.st0{fill:#020000;}
	.st1{fill-rule:evenodd;clip-rule:evenodd;}
	.st2{fill:#020202;}
	.st3{fill:#5A9BFD;stroke:#5A9BFD;stroke-width:40;stroke-linecap:round;stroke-miterlimit:10;}
	.st4{fill:none;stroke:#FFFFFF;stroke-width:40;stroke-linecap:round;stroke-miterlimit:10;}
	.st5{fill:none;stroke:#020000;stroke-width:50;stroke-linecap:round;stroke-miterlimit:10;}
	.st6{fill:none;}
	.st7{fill:none;stroke:#000000;stroke-width:50;stroke-linecap:round;stroke-linejoin:round;stroke-miterlimit:10;}
</style>
<g>
	<path class="st2" d="M509,917c-54.1,0-106.8-10.3-156.6-30.5c-51.7-20.9-98-51.7-137.7-91.4c-39.7-39.7-70.5-86.1-91.4-137.7
		c-20.2-49.9-30.5-102.6-30.5-156.6c0-54.1,10.3-106.7,30.5-156.6c20.9-51.7,51.7-98,91.4-137.7c39.7-39.7,86.1-70.5,137.7-91.4
		C402.2,94.7,454.9,84.4,509,84.4c54.1,0,106.7,10.3,156.6,30.5c51.7,20.9,98,51.7,137.7,91.4c39.7,39.7,70.5,86.1,91.4,137.7
		c20.2,49.9,30.5,102.6,30.5,156.6c0,54.1-10.3,106.7-30.5,156.6c-20.9,51.7-51.7,98-91.4,137.7s-86.1,70.5-137.7,91.4
		C615.7,906.7,563,917,509,917z M509,134.4c-97.8,0-189.8,38.1-259,107.3s-107.3,161.2-107.3,259c0,97.8,38.1,189.8,107.3,259
		S411.1,867,509,867c97.8,0,189.8-38.1,259-107.3s107.3-161.2,107.3-259c0-97.8-38.1-189.8-107.3-259S606.8,134.4,509,134.4z"/>
</g>
<g>
	<path class="st2" d="M668.9,699.2c-6.4,0-12.8-2.4-17.7-7.3L327,367.7c-9.8-9.8-9.8-25.6,0-35.4c9.8-9.8,25.6-9.8,35.4,0
		l324.2,324.2c9.8,9.8,9.8,25.6,0,35.4C681.7,696.8,675.3,699.2,668.9,699.2z"/>
</g>
<g>
	<path class="st2" d="M340.3,703.7c-6.4,0-12.8-2.4-17.7-7.3c-9.8-9.8-9.8-25.6,0-35.4l324.2-324.2c9.8-9.8,25.6-9.8,35.4,0
		c9.8,9.8,9.8,25.6,0,35.4L357.9,696.4C353.1,701.2,346.7,703.7,340.3,703.7z"/>
</g>
</svg>
