<?xml version="1.0" encoding="utf-8"?>
<!-- Generator: Adobe Illustrator 18.0.0, SVG Export Plug-In . SVG Version: 6.00 Build 0)  -->
<!DOCTYPE svg PUBLIC "-//W3C//DTD SVG 1.1//EN" "http://www.w3.org/Graphics/SVG/1.1/DTD/svg11.dtd">
<svg version="1.1" id="图层_1" xmlns="http://www.w3.org/2000/svg" xmlns:xlink="http://www.w3.org/1999/xlink" x="0px" y="0px"
	 viewBox="0 0 1000 1000" style="enable-background:new 0 0 1000 1000;" xml:space="preserve">
<style type="text/css">
	.st0{fill:#020000;}
	.st1{fill-rule:evenodd;clip-rule:evenodd;}
	.st2{fill:#020202;}
	.st3{fill:#5A9BFD;stroke:#5A9BFD;stroke-width:40;stroke-linecap:round;stroke-miterlimit:10;}
	.st4{fill:none;stroke:#FFFFFF;stroke-width:40;stroke-linecap:round;stroke-miterlimit:10;}
	.st5{fill:none;stroke:#020000;stroke-width:50;stroke-linecap:round;stroke-miterlimit:10;}
	.st6{fill:none;}
	.st7{fill:none;stroke:#000000;stroke-width:50;stroke-linecap:round;stroke-linejoin:round;stroke-miterlimit:10;}
</style>
<g>
	<path class="st0" d="M511.7,431.4c-99.8,0-180.9-81.2-180.9-180.9S411.9,69.5,511.7,69.5c99.8,0,180.9,81.2,180.9,180.9
		c0,21.4-3.7,42.3-11,62.2c-4.5,12.4-10.5,24.3-17.6,35.4c-7.5,11.6-22.9,15-34.5,7.5c-11.6-7.5-15-22.9-7.5-34.5
		c5.2-8,9.4-16.7,12.7-25.6c5.3-14.4,7.9-29.5,7.9-45c0-72.2-58.7-130.9-130.9-130.9s-130.9,58.7-130.9,130.9
		s58.7,130.9,130.9,130.9c13.8,0,25,11.2,25,25S525.5,431.4,511.7,431.4z"/>
</g>
<g>
	<path class="st0" d="M836.1,755.6c-13.8,0-25-11.2-25-25c0-165.1-134.3-299.4-299.4-299.4S212.2,565.5,212.2,730.6
		c0,13.8-11.2,25-25,25c-13.8,0-25-11.2-25-25c0-47.2,9.2-92.9,27.5-136c17.6-41.6,42.8-79,74.9-111.1
		c32.1-32.1,69.5-57.3,111.1-74.9c43.1-18.2,88.9-27.5,136-27.5s92.9,9.2,136,27.5c41.6,17.6,79,42.8,111.1,74.9
		c32.1,32.1,57.3,69.5,74.9,111.1c18.2,43.1,27.5,88.9,27.5,136C861.1,744.4,849.9,755.6,836.1,755.6z"/>
</g>
<g>
	<path class="st5" d="M565,413.9"/>
</g>
</svg>
