<?xml version="1.0" encoding="utf-8"?>
<!-- Generator: Adobe Illustrator 18.0.0, SVG Export Plug-In . SVG Version: 6.00 Build 0)  -->
<!DOCTYPE svg PUBLIC "-//W3C//DTD SVG 1.1//EN" "http://www.w3.org/Graphics/SVG/1.1/DTD/svg11.dtd">
<svg version="1.1" id="图层_1" xmlns="http://www.w3.org/2000/svg" xmlns:xlink="http://www.w3.org/1999/xlink" x="0px" y="0px"
	 viewBox="0 0 1000 1000" style="enable-background:new 0 0 1000 1000;" xml:space="preserve">
<style type="text/css">
	.st0{fill:#020000;}
	.st1{fill-rule:evenodd;clip-rule:evenodd;}
	.st2{fill:#020202;}
	.st3{fill:#5A9BFD;stroke:#5A9BFD;stroke-width:40;stroke-linecap:round;stroke-miterlimit:10;}
	.st4{fill:none;stroke:#FFFFFF;stroke-width:40;stroke-linecap:round;stroke-miterlimit:10;}
	.st5{fill:none;stroke:#020000;stroke-width:50;stroke-linecap:round;stroke-miterlimit:10;}
	.st6{fill:none;}
	.st7{fill:none;stroke:#000000;stroke-width:50;stroke-linecap:round;stroke-linejoin:round;stroke-miterlimit:10;}
</style>
<g>
	<path class="st0" d="M184.5,533.1c-13.8,0-25-11.2-25-25c0-82.5,29.7-162.3,83.7-224.6c29.7-34.2,65.2-61.9,105.6-82.2
		c12.3-6.2,27.4-1.2,33.6,11.1c6.2,12.3,1.2,27.4-11.1,33.6c-34.5,17.3-64.9,40.9-90.3,70.2c-46.1,53.2-71.5,121.3-71.5,191.8
		C209.5,521.9,198.3,533.1,184.5,533.1z"/>
</g>
<g>
	<path class="st0" d="M502.6,851.2c-74.9,0-146.1-23.7-205.8-68.6c-11-8.3-13.3-24-5-35c8.3-11,24-13.3,35-5
		c51,38.3,111.8,58.6,175.8,58.6c58.4,0,114.8-17.1,163.1-49.5c11.5-7.7,27-4.6,34.7,6.8c7.7,11.5,4.6,27-6.8,34.7
		C636.9,831.1,570.9,851.2,502.6,851.2z"/>
</g>
<g>
	<path class="st0" d="M819.5,559.9c-0.7,0-1.4,0-2.1-0.1c-13.8-1.1-24-13.2-22.8-27c0.7-8.1,1-16.4,1-24.7
		c0-113.2-66.3-217.4-168.9-265.5c-12.5-5.9-17.9-20.7-12-33.2c5.9-12.5,20.7-17.9,33.2-12c58.2,27.3,107.5,70.3,142.6,124.3
		c36,55.5,55.1,120,55.1,186.5c0,9.6-0.4,19.3-1.2,28.8C843.3,550,832.4,559.9,819.5,559.9z"/>
</g>
<g>
	<path class="st0" d="M227.9,755.6c-58.9,0-106.8-47.9-106.8-106.8c0-58.9,47.9-106.8,106.8-106.8c58.9,0,106.8,47.9,106.8,106.8
		C334.7,707.6,286.8,755.6,227.9,755.6z M227.9,591.9c-31.3,0-56.8,25.5-56.8,56.8s25.5,56.8,56.8,56.8s56.8-25.5,56.8-56.8
		S259.3,591.9,227.9,591.9z"/>
</g>
<g>
	<path class="st0" d="M500,295.6c-58.9,0-106.8-47.9-106.8-106.8S441.1,81.9,500,81.9c58.9,0,106.8,47.9,106.8,106.8
		S558.9,295.6,500,295.6z M500,131.9c-31.3,0-56.8,25.5-56.8,56.8s25.5,56.8,56.8,56.8s56.8-25.5,56.8-56.8S531.3,131.9,500,131.9z"
		/>
</g>
<g>
	<path class="st0" d="M772.1,771.6c-58.9,0-106.8-47.9-106.8-106.8c0-58.9,47.9-106.8,106.8-106.8c58.9,0,106.8,47.9,106.8,106.8
		C878.9,723.6,831,771.6,772.1,771.6z M772.1,607.9c-31.3,0-56.8,25.5-56.8,56.8s25.5,56.8,56.8,56.8s56.8-25.5,56.8-56.8
		S803.4,607.9,772.1,607.9z"/>
</g>
</svg>
