<?xml version="1.0" encoding="utf-8"?>
<!-- Generator: Adobe Illustrator 18.0.0, SVG Export Plug-In . SVG Version: 6.00 Build 0)  -->
<!DOCTYPE svg PUBLIC "-//W3C//DTD SVG 1.1//EN" "http://www.w3.org/Graphics/SVG/1.1/DTD/svg11.dtd">
<svg version="1.1" id="图层_1" xmlns="http://www.w3.org/2000/svg" xmlns:xlink="http://www.w3.org/1999/xlink" x="0px" y="0px"
	 viewBox="0 0 1000 1000" style="enable-background:new 0 0 1000 1000;" xml:space="preserve">
<style type="text/css">
	.st0{fill:#020000;}
	.st1{fill-rule:evenodd;clip-rule:evenodd;}
	.st2{fill:#020202;}
	.st3{fill:#5A9BFD;stroke:#5A9BFD;stroke-width:40;stroke-linecap:round;stroke-miterlimit:10;}
	.st4{fill:none;stroke:#FFFFFF;stroke-width:40;stroke-linecap:round;stroke-miterlimit:10;}
	.st5{fill:none;stroke:#020000;stroke-width:50;stroke-linecap:round;stroke-miterlimit:10;}
	.st6{fill:none;}
	.st7{fill:none;stroke:#000000;stroke-width:50;stroke-linecap:round;stroke-linejoin:round;stroke-miterlimit:10;}
</style>
<g>
	<path class="st0" d="M495.4,837.1h-188c-47.5,0-86.1-38.6-86.1-86.1V251.1c0-47.5,38.6-86.1,86.1-86.1h410.9
		c47.5,0,86.1,38.6,86.1,86.1v58c0,13.8-11.2,25-25,25s-25-11.2-25-25v-58c0-19.9-16.2-36.1-36.1-36.1H307.4
		c-19.9,0-36.1,16.2-36.1,36.1v499.9c0,19.9,16.2,36.1,36.1,36.1h188c13.8,0,25,11.2,25,25S509.2,837.1,495.4,837.1z"/>
</g>
<g>
	<path class="st0" d="M718.3,837.1h-15.9c-13.8,0-25-11.2-25-25s11.2-25,25-25h15.9c19.9,0,36.1-16.2,36.1-36.1V636.1
		c0-13.8,11.2-25,25-25s25,11.2,25,25v114.9C804.4,798.4,765.8,837.1,718.3,837.1z"/>
</g>
<g>
	<path class="st0" d="M674.4,356.1h-330c-13.8,0-25-11.2-25-25s11.2-25,25-25h330c13.8,0,25,11.2,25,25S688.2,356.1,674.4,356.1z"/>
</g>
<g>
	<path class="st0" d="M629.4,508.1h-290c-13.8,0-25-11.2-25-25s11.2-25,25-25h290c13.8,0,25,11.2,25,25S643.2,508.1,629.4,508.1z"/>
</g>
<g>
	<path class="st0" d="M549.4,663.1h-210c-13.8,0-25-11.2-25-25s11.2-25,25-25h210c13.8,0,25,11.2,25,25S563.2,663.1,549.4,663.1z"/>
</g>
<g>
	<path class="st0" d="M587.6,828.4C587.5,828.4,587.5,828.4,587.6,828.4c-9.7,0-18.9-4.2-25.3-11.4c-6.3-7.2-9.3-16.8-8-26.4
		l10.3-79.7c0.8-6.1,2.8-11.9,5.9-17.2L749.8,389c8.1-13.7,23-22.3,39-22.3c8.4,0,16.6,2.3,23.8,6.8l36.8,22.8
		c20.9,13,27.6,39.8,15.3,61.1L684.8,766.3c-3.5,6.1-8.5,11.3-14.4,15.1c-13,8.5-45.5,29.6-65.2,41.9
		C599.9,826.6,593.8,828.4,587.6,828.4z M614,718.1l-5.7,44c14-9,27.5-17.8,33.9-22L819,436.3l-28.6-17.7L614,718.1z"/>
</g>
<g>
	
		<rect x="751.5" y="441.6" transform="matrix(0.8432 0.5376 -0.5376 0.8432 374.6363 -351.2101)" class="st0" width="75.7" height="50"/>
</g>
<g>
	
		<rect x="588.1" y="699.4" transform="matrix(0.8186 0.5743 -0.5743 0.8186 530.4423 -230.897)" class="st0" width="85.4" height="50"/>
</g>
</svg>
