<?xml version="1.0" encoding="utf-8"?>
<!-- Generator: Adobe Illustrator 18.0.0, SVG Export Plug-In . SVG Version: 6.00 Build 0)  -->
<!DOCTYPE svg PUBLIC "-//W3C//DTD SVG 1.1//EN" "http://www.w3.org/Graphics/SVG/1.1/DTD/svg11.dtd">
<svg version="1.1" id="图层_1" xmlns="http://www.w3.org/2000/svg" xmlns:xlink="http://www.w3.org/1999/xlink" x="0px" y="0px"
	 viewBox="0 0 1000 1000" style="enable-background:new 0 0 1000 1000;" xml:space="preserve">
<style type="text/css">
	.st0{fill:#020000;}
	.st1{fill-rule:evenodd;clip-rule:evenodd;}
	.st2{fill:#020202;}
	.st3{fill:#5A9BFD;stroke:#5A9BFD;stroke-width:40;stroke-linecap:round;stroke-miterlimit:10;}
	.st4{fill:none;stroke:#FFFFFF;stroke-width:40;stroke-linecap:round;stroke-miterlimit:10;}
	.st5{fill:none;stroke:#020000;stroke-width:50;stroke-linecap:round;stroke-miterlimit:10;}
	.st6{fill:none;}
	.st7{fill:none;stroke:#000000;stroke-width:50;stroke-linecap:round;stroke-linejoin:round;stroke-miterlimit:10;}
</style>
<g>
	<path d="M726.4,806.8H677c-38.5,0-69.8-31.3-69.8-69.8V250c0-38.5,31.3-69.8,69.8-69.8h49.5c38.5,0,69.8,31.3,69.8,69.8v487
		C796.2,775.5,764.9,806.8,726.4,806.8z M677,230.2c-10.9,0-19.8,8.9-19.8,19.8v487c0,10.9,8.9,19.8,19.8,19.8h49.5
		c10.9,0,19.8-8.9,19.8-19.8V250c0-10.9-8.9-19.8-19.8-19.8H677z"/>
</g>
<g>
	<path d="M493.1,806.8h-49.5c-38.5,0-69.8-31.3-69.8-69.8V486.1c0-38.5,31.3-69.8,69.8-69.8h49.5c38.5,0,69.8,31.3,69.8,69.8V737
		C562.9,775.5,531.6,806.8,493.1,806.8z M443.6,466.3c-10.9,0-19.8,8.9-19.8,19.8V737c0,10.9,8.9,19.8,19.8,19.8h49.5
		c10.9,0,19.8-8.9,19.8-19.8V486.1c0-10.9-8.9-19.8-19.8-19.8H443.6z"/>
</g>
<g>
	<path d="M274.6,806.8h-49.5c-38.5,0-69.8-31.3-69.8-69.8V375.4c0-38.5,31.3-69.8,69.8-69.8h49.5c38.5,0,69.8,31.3,69.8,69.8V737
		C344.4,775.5,313.1,806.8,274.6,806.8z M225.2,355.6c-10.9,0-19.8,8.9-19.8,19.8V737c0,10.9,8.9,19.8,19.8,19.8h49.5
		c10.9,0,19.8-8.9,19.8-19.8V375.4c0-10.9-8.9-19.8-19.8-19.8H225.2z"/>
</g>
</svg>
