<?xml version="1.0" encoding="utf-8"?>
<!-- Generator: Adobe Illustrator 18.0.0, SVG Export Plug-In . SVG Version: 6.00 Build 0)  -->
<!DOCTYPE svg PUBLIC "-//W3C//DTD SVG 1.1//EN" "http://www.w3.org/Graphics/SVG/1.1/DTD/svg11.dtd">
<svg version="1.1" id="图层_1" xmlns="http://www.w3.org/2000/svg" xmlns:xlink="http://www.w3.org/1999/xlink" x="0px" y="0px"
	 viewBox="0 0 1000 1000" style="enable-background:new 0 0 1000 1000;" xml:space="preserve">
<style type="text/css">
	.st0{fill:#020000;}
	.st1{fill-rule:evenodd;clip-rule:evenodd;}
	.st2{fill:#020202;}
	.st3{fill:#5A9BFD;stroke:#5A9BFD;stroke-width:40;stroke-linecap:round;stroke-miterlimit:10;}
	.st4{fill:none;stroke:#FFFFFF;stroke-width:40;stroke-linecap:round;stroke-miterlimit:10;}
	.st5{fill:none;stroke:#020000;stroke-width:50;stroke-linecap:round;stroke-miterlimit:10;}
	.st6{fill:none;}
	.st7{fill:none;stroke:#000000;stroke-width:50;stroke-linecap:round;stroke-linejoin:round;stroke-miterlimit:10;}
</style>
<g>
	<path d="M658.2,849.6H276.7c-59.2,0-107.4-48.2-107.4-107.4V321.6c0-59.2,48.2-107.4,107.4-107.4H548c13.8,0,25,11.2,25,25
		s-11.2,25-25,25H276.7c-31.6,0-57.4,25.7-57.4,57.4v420.7c0,31.6,25.7,57.4,57.4,57.4h381.5c31.6,0,57.4-25.7,57.4-57.4V460.5
		c0-13.8,11.2-25,25-25c13.8,0,25,11.2,25,25v281.8C765.6,801.5,717.4,849.6,658.2,849.6z"/>
</g>
<g>
	<path d="M450.5,440.7H320.7c-13.8,0-25-11.2-25-25s11.2-25,25-25h129.7c13.8,0,25,11.2,25,25S464.3,440.7,450.5,440.7z"/>
</g>
<g>
	<path d="M583,567.3H320.7c-13.8,0-25-11.2-25-25s11.2-25,25-25H583c13.8,0,25,11.2,25,25S596.8,567.3,583,567.3z"/>
</g>
<g>
	<path d="M583,689.7H320.7c-13.8,0-25-11.2-25-25s11.2-25,25-25H583c13.8,0,25,11.2,25,25S596.8,689.7,583,689.7z"/>
</g>
<g>
	<path d="M631.6,459.7L510.7,331.4c-9.5-10-9-25.9,1-35.3c10-9.5,25.9-9,35.3,1l84.2,89.3l164.9-178.1c9.4-10.1,25.2-10.7,35.3-1.4
		c10.1,9.4,10.7,25.2,1.4,35.3L631.6,459.7z"/>
</g>
</svg>
