<?xml version="1.0" encoding="utf-8"?>
<!-- Generator: Adobe Illustrator 18.0.0, SVG Export Plug-In . SVG Version: 6.00 Build 0)  -->
<!DOCTYPE svg PUBLIC "-//W3C//DTD SVG 1.1//EN" "http://www.w3.org/Graphics/SVG/1.1/DTD/svg11.dtd">
<svg version="1.1" id="图层_1" xmlns="http://www.w3.org/2000/svg" xmlns:xlink="http://www.w3.org/1999/xlink" x="0px" y="0px"
	 viewBox="0 0 1000 1000" style="enable-background:new 0 0 1000 1000;" xml:space="preserve">
<style type="text/css">
	.st0{fill:#020000;}
	.st1{fill-rule:evenodd;clip-rule:evenodd;}
	.st2{fill:#020202;}
	.st3{fill:#5A9BFD;stroke:#5A9BFD;stroke-width:40;stroke-linecap:round;stroke-miterlimit:10;}
	.st4{fill:none;stroke:#FFFFFF;stroke-width:40;stroke-linecap:round;stroke-miterlimit:10;}
	.st5{fill:none;stroke:#020000;stroke-width:50;stroke-linecap:round;stroke-miterlimit:10;}
	.st6{fill:none;}
	.st7{fill:none;stroke:#000000;stroke-width:50;stroke-linecap:round;stroke-linejoin:round;stroke-miterlimit:10;}
</style>
<g>
	<path d="M403.6,838.9h-141c-48.1,0-87.2-39.1-87.2-87.3V260.6c0-48.1,39.1-87.3,87.2-87.3h450.9c48.1,0,87.3,39.1,87.3,87.3v340.5
		c0,13.8-11.2,25-25,25s-25-11.2-25-25V260.6c0-20.5-16.7-37.3-37.3-37.3H262.6c-20.5,0-37.2,16.7-37.2,37.3v491.1
		c0,20.5,16.7,37.3,37.2,37.3h141c13.8,0,25,11.2,25,25S417.4,838.9,403.6,838.9z"/>
</g>
<g>
	<path d="M622.2,356.3H295.8c-13.8,0-25-11.2-25-25s11.2-25,25-25h326.4c13.8,0,25,11.2,25,25S636,356.3,622.2,356.3z"/>
</g>
<g>
	<path d="M424.9,482.7h-129c-13.8,0-25-11.2-25-25s11.2-25,25-25h129c13.8,0,25,11.2,25,25S438.7,482.7,424.9,482.7z"/>
</g>
<g>
	<path d="M386.9,611.3h-91.1c-13.8,0-25-11.2-25-25s11.2-25,25-25h91.1c13.8,0,25,11.2,25,25S400.7,611.3,386.9,611.3z"/>
</g>
<g>
	<path d="M623.6,664.8c-69.4,0-125.8-56.4-125.8-125.8s56.4-125.8,125.8-125.8c69.4,0,125.8,56.4,125.8,125.8S693,664.8,623.6,664.8
		z M623.6,463.3c-41.8,0-75.8,34-75.8,75.8s34,75.8,75.8,75.8c41.8,0,75.8-34,75.8-75.8S665.4,463.3,623.6,463.3z"/>
</g>
<g>
	<path d="M551.8,823.8c-8.9,0-17.2-4.7-21.6-12.5L505,767.9l-47.4,5.6c-9.2,1.1-18.3-3-23.6-10.7s-5.8-17.7-1.4-25.9
		c22-41.4,79.1-148.5,83-155.9c2-4,5-7.5,9.1-10.1c11.7-7.4,27.1-3.8,34.5,7.8c2.3,3.7,7,13.5,0.7,25.4l-3.4,6.4
		c-2.3,4.3-5.5,10.4-9.4,17.8c-7.8,14.7-18.2,34.3-28.6,53.8c-6.6,12.4-13.2,24.8-19.2,36l16.3-1.9c9.9-1.2,19.6,3.7,24.6,12.3
		l10.6,18.3l50.8-97.7c4.2-8.1,12.4-13.2,21.5-13.5c9.1-0.3,17.6,4.4,22.2,12.3l55.7,94.1l9.1-16.2c4.8-8.4,13.9-13.4,23.6-12.7
		l14.9,1.1L686,607.3c-7-11.9-2.9-27.2,9-34.2c11.9-7,27.2-2.9,34.2,9L815.6,730c4.7,8,4.5,18-0.4,25.8c-4.9,7.9-13.8,12.4-23,11.7
		l-46.4-3.4l-22.6,40.1c-4.4,7.8-12.6,12.6-21.5,12.7c-8.9,0.1-17.2-4.6-21.8-12.3L625,712.1l-51,98.2c-4.2,8.1-12.5,13.3-21.6,13.5
		C552.2,823.8,552,823.8,551.8,823.8z M515.3,581.5c-1.8,3.7-2.6,7.8-2.3,11.9C512.8,589.3,513.6,585.2,515.3,581.5z"/>
</g>
</svg>
