<?xml version="1.0" encoding="utf-8"?>
<!-- Generator: Adobe Illustrator 18.0.0, SVG Export Plug-In . SVG Version: 6.00 Build 0)  -->
<!DOCTYPE svg PUBLIC "-//W3C//DTD SVG 1.1//EN" "http://www.w3.org/Graphics/SVG/1.1/DTD/svg11.dtd">
<svg version="1.1" id="图层_1" xmlns="http://www.w3.org/2000/svg" xmlns:xlink="http://www.w3.org/1999/xlink" x="0px" y="0px"
	 viewBox="0 0 1000 1000" style="enable-background:new 0 0 1000 1000;" xml:space="preserve">
<style type="text/css">
	.st0{fill:#020000;}
	.st1{fill-rule:evenodd;clip-rule:evenodd;}
	.st2{fill:#020202;}
	.st3{fill:#5A9BFD;stroke:#5A9BFD;stroke-width:40;stroke-linecap:round;stroke-miterlimit:10;}
	.st4{fill:none;stroke:#FFFFFF;stroke-width:40;stroke-linecap:round;stroke-miterlimit:10;}
	.st5{fill:none;stroke:#020000;stroke-width:50;stroke-linecap:round;stroke-miterlimit:10;}
	.st6{fill:none;}
	.st7{fill:none;stroke:#000000;stroke-width:50;stroke-linecap:round;stroke-linejoin:round;stroke-miterlimit:10;}
</style>
<g>
	<path d="M762.6,777H236.9c-63.4,0-115-51.6-115-115V354.4c0-63.4,51.6-115,115-115h525.7c63.4,0,115,51.6,115,115V662
		C877.6,725.4,826,777,762.6,777z M236.9,289.4c-35.8,0-65,29.2-65,65V662c0,35.8,29.2,65,65,65h525.7c35.8,0,65-29.2,65-65V354.4
		c0-35.8-29.2-65-65-65H236.9z"/>
</g>
<g>
	<path d="M848.1,424.7H147c-13.8,0-25-11.2-25-25s11.2-25,25-25h701.2c13.8,0,25,11.2,25,25S862,424.7,848.1,424.7z"/>
</g>
<g>
	<path d="M511.5,510.8H226.4c-13.8,0-25-11.2-25-25s11.2-25,25-25h285.2c13.8,0,25,11.2,25,25S525.3,510.8,511.5,510.8z"/>
</g>
<g>
	<path d="M767.6,590.2h-76c-13.8,0-25-11.2-25-25s11.2-25,25-25h76c13.8,0,25,11.2,25,25S781.4,590.2,767.6,590.2z"/>
</g>
<g>
	<path d="M767.6,650.6h-76c-13.8,0-25-11.2-25-25s11.2-25,25-25h76c13.8,0,25,11.2,25,25S781.4,650.6,767.6,650.6z"/>
</g>
</svg>
