<?xml version="1.0" encoding="utf-8"?>
<!-- Generator: Adobe Illustrator 18.0.0, SVG Export Plug-In . SVG Version: 6.00 Build 0)  -->
<!DOCTYPE svg PUBLIC "-//W3C//DTD SVG 1.1//EN" "http://www.w3.org/Graphics/SVG/1.1/DTD/svg11.dtd">
<svg version="1.1" id="图层_1" xmlns="http://www.w3.org/2000/svg" xmlns:xlink="http://www.w3.org/1999/xlink" x="0px" y="0px"
	 viewBox="0 0 1000 1000" style="enable-background:new 0 0 1000 1000;" xml:space="preserve">
<style type="text/css">
	.st0{fill:#020000;}
	.st1{fill-rule:evenodd;clip-rule:evenodd;}
	.st2{fill:#020202;}
	.st3{fill:#5A9BFD;stroke:#5A9BFD;stroke-width:40;stroke-linecap:round;stroke-miterlimit:10;}
	.st4{fill:none;stroke:#FFFFFF;stroke-width:40;stroke-linecap:round;stroke-miterlimit:10;}
	.st5{fill:none;stroke:#020000;stroke-width:50;stroke-linecap:round;stroke-miterlimit:10;}
	.st6{fill:none;}
	.st7{fill:none;stroke:#000000;stroke-width:50;stroke-linecap:round;stroke-linejoin:round;stroke-miterlimit:10;}
</style>
<g>
	<path d="M761,782.2H215.1c-58.7,0-106.5-47.8-106.5-106.5V339.4c0-58.7,47.8-106.5,106.5-106.5H761c58.7,0,106.5,47.8,106.5,106.5
		v336.3C867.5,734.4,819.7,782.2,761,782.2z M215.1,282.9c-31.2,0-56.5,25.3-56.5,56.5v336.3c0,31.2,25.3,56.5,56.5,56.5H761
		c31.2,0,56.5-25.3,56.5-56.5V339.4c0-31.2-25.3-56.5-56.5-56.5H215.1z"/>
</g>
<g>
	<path d="M465.6,428.9H208.1c-13.8,0-25-11.2-25-25s11.2-25,25-25h257.5c13.8,0,25,11.2,25,25S479.4,428.9,465.6,428.9z"/>
</g>
<g>
	<path d="M442.1,532.5H208.1c-13.8,0-25-11.2-25-25s11.2-25,25-25h233.9c13.8,0,25,11.2,25,25S455.9,532.5,442.1,532.5z"/>
</g>
<g>
	<path d="M379.3,636.2H208.1c-13.8,0-25-11.2-25-25s11.2-25,25-25h171.1c13.8,0,25,11.2,25,25S393.1,636.2,379.3,636.2z"/>
</g>
<g>
	<path d="M630.5,550.7c-59.2,0-107.4-48.2-107.4-107.4c0-59.2,48.2-107.4,107.4-107.4S737.9,384,737.9,443.2
		C737.9,502.5,689.7,550.7,630.5,550.7z M630.5,385.8c-31.7,0-57.4,25.8-57.4,57.4s25.8,57.4,57.4,57.4s57.4-25.8,57.4-57.4
		S662.1,385.8,630.5,385.8z"/>
</g>
<g>
	<path d="M766,704.9c-13.8,0-25-11.2-25-25c0-71.3-48.5-129.3-108.1-129.3s-108.1,58-108.1,129.3c0,13.8-11.2,25-25,25
		s-25-11.2-25-25c0-47.2,16-91.7,45-125.4c30-34.7,70.1-53.8,113-53.8s83.1,19.1,113,53.8c29,33.7,45,78.2,45,125.4
		C791,693.7,779.8,704.9,766,704.9z"/>
</g>
</svg>
