<?xml version="1.0" encoding="utf-8"?>
<!-- Generator: Adobe Illustrator 18.0.0, SVG Export Plug-In . SVG Version: 6.00 Build 0)  -->
<!DOCTYPE svg PUBLIC "-//W3C//DTD SVG 1.1//EN" "http://www.w3.org/Graphics/SVG/1.1/DTD/svg11.dtd">
<svg version="1.1" id="图层_1" xmlns="http://www.w3.org/2000/svg" xmlns:xlink="http://www.w3.org/1999/xlink" x="0px" y="0px"
	 viewBox="0 0 1000 1000" style="enable-background:new 0 0 1000 1000;" xml:space="preserve">
<style type="text/css">
	.st0{fill-rule:evenodd;clip-rule:evenodd;fill:none;stroke:#020000;stroke-width:50;stroke-linecap:round;stroke-miterlimit:10;}
	
		.st1{fill-rule:evenodd;clip-rule:evenodd;fill:none;stroke:#020000;stroke-width:50;stroke-linecap:round;stroke-linejoin:round;stroke-miterlimit:10;}
	.st2{fill-rule:evenodd;clip-rule:evenodd;fill:none;stroke:#020000;stroke-width:50;stroke-miterlimit:10;}
	.st3{fill-rule:evenodd;clip-rule:evenodd;stroke:#020000;stroke-width:5;stroke-miterlimit:10;}
	.st4{fill:none;stroke:#000000;stroke-width:50;stroke-linecap:round;stroke-miterlimit:10;}
	.st5{fill:none;stroke:#000000;stroke-width:50;stroke-linecap:round;stroke-linejoin:round;stroke-miterlimit:10;}
	.st6{fill-rule:evenodd;clip-rule:evenodd;fill:none;stroke:#000000;stroke-width:50;stroke-miterlimit:10;}
	.st7{fill:none;stroke:#000000;stroke-width:50;stroke-miterlimit:10;}
	.st8{fill:none;stroke:#020202;stroke-width:50;stroke-linecap:round;stroke-miterlimit:10;}
	.st9{fill:#5A9BFD;stroke:#5A9BFD;stroke-width:40;stroke-linecap:round;stroke-miterlimit:10;}
	.st10{fill:none;stroke:#FFFFFF;stroke-width:40;stroke-linecap:round;stroke-miterlimit:10;}
	.st11{fill:none;stroke:#000000;stroke-width:40;stroke-linecap:round;stroke-linejoin:round;stroke-miterlimit:10;}
	.st12{fill:none;stroke:#020000;stroke-width:50;stroke-linecap:round;stroke-miterlimit:10;}
	.st13{fill:none;stroke:#020000;stroke-width:50;stroke-linecap:round;stroke-linejoin:round;stroke-miterlimit:10;}
	.st14{fill-rule:evenodd;clip-rule:evenodd;fill:none;stroke:#000000;stroke-width:50;stroke-linecap:round;stroke-miterlimit:10;}
	
		.st15{fill-rule:evenodd;clip-rule:evenodd;fill:none;stroke:#000000;stroke-width:50;stroke-linecap:round;stroke-linejoin:round;stroke-miterlimit:10;}
	.st16{fill-rule:evenodd;clip-rule:evenodd;}
	.st17{fill:none;}
</style>
<path class="st14" d="M648.7,820.1c-8.8,45.9-61,95.5-130.1,95.5l0,0c-69.1,0-121.3-49.6-130.1-95.5"/>
<path class="st14" d="M500,84.4c-41,0-74.5,33.5-74.5,74.5v18.6C332.4,205.9,258,295.4,258,400.9v167.6c0,0-4.4,55.9-37.2,55.9
	c-22,0-55.9,21.7-55.9,55.9s36.5,55.9,55.9,55.9h558.5c19.3,0,55.9-15.5,55.9-55.9s-33.2-55.9-55.9-55.9c-33,0-37.2-55.9-37.2-55.9
	V400.9c0-105.4-55.9-195-167.6-223.4v-18.6C574.5,117.9,541,84.4,500,84.4L500,84.4z"/>
</svg>
