<?xml version="1.0" encoding="utf-8"?>
<!-- Generator: Adobe Illustrator 18.0.0, SVG Export Plug-In . SVG Version: 6.00 Build 0)  -->
<!DOCTYPE svg PUBLIC "-//W3C//DTD SVG 1.1//EN" "http://www.w3.org/Graphics/SVG/1.1/DTD/svg11.dtd">
<svg version="1.1" id="图层_1" xmlns="http://www.w3.org/2000/svg" xmlns:xlink="http://www.w3.org/1999/xlink" x="0px" y="0px"
	 viewBox="0 0 1000 1000" style="enable-background:new 0 0 1000 1000;" xml:space="preserve">
<style type="text/css">
	.st0{fill:none;stroke:#040000;stroke-width:50;stroke-linecap:round;stroke-miterlimit:10;}
	.st1{fill:none;stroke:#040000;stroke-width:50;stroke-linecap:round;stroke-linejoin:round;stroke-miterlimit:10;}
</style>
<path class="st0" d="M377.6,592H209.8c-7.4,0-13.5-6.1-13.5-13.5l78.6-346.9c0-7.4,6.1-13.5,13.5-13.5h402c7.4,0,13.5,6.1,13.5,13.5
	l101,346.9c0,7.4-6.1,13.5-13.5,13.5H633"/>
<path class="st0" d="M634.2,590.8H797c7.4,0,13.5,6.1,13.5,13.5v229c0,7.4-6.1,13.5-13.5,13.5H203c-7.4,0-13.5-6.1-13.5-13.5v-229
	c0-7.4,6.1-13.5,13.5-13.5h173.5"/>
<path class="st0" d="M629.7,590.8v75.6c0,14.7-11.9,26.6-26.6,26.6H404.8c-14.7,0-26.6-11.9-26.6-26.6v-71.9"/>
<polyline class="st1" points="388.3,432.9 500.6,333.3 500.6,576.6 "/>
<line class="st1" x1="609.1" y1="432.9" x2="500.6" y2="333.3"/>
</svg>
