<?xml version="1.0" encoding="utf-8"?>
<!-- Generator: Adobe Illustrator 18.0.0, SVG Export Plug-In . SVG Version: 6.00 Build 0)  -->
<!DOCTYPE svg PUBLIC "-//W3C//DTD SVG 1.1//EN" "http://www.w3.org/Graphics/SVG/1.1/DTD/svg11.dtd">
<svg version="1.1" id="图层_1" xmlns="http://www.w3.org/2000/svg" xmlns:xlink="http://www.w3.org/1999/xlink" x="0px" y="0px"
	 viewBox="0 0 1000 1000" style="enable-background:new 0 0 1000 1000;" xml:space="preserve">
<style type="text/css">
	.st0{fill:#020000;}
	.st1{fill-rule:evenodd;clip-rule:evenodd;}
	.st2{fill:#020202;}
	.st3{fill:#5A9BFD;stroke:#5A9BFD;stroke-width:40;stroke-linecap:round;stroke-miterlimit:10;}
	.st4{fill:none;stroke:#FFFFFF;stroke-width:40;stroke-linecap:round;stroke-miterlimit:10;}
	.st5{fill:none;stroke:#020000;stroke-width:50;stroke-linecap:round;stroke-miterlimit:10;}
	.st6{fill:none;}
	.st7{fill:none;stroke:#000000;stroke-width:50;stroke-linecap:round;stroke-linejoin:round;stroke-miterlimit:10;}
</style>
<g>
	<path d="M330.4,664.4h-67.1c-34.2,0-62-27.8-62-62V200.7c0-34.2,27.8-62,62-62h39.5c13.8,0,25,11.2,25,25s-11.2,25-25,25h-39.5
		c-6.5,0-12,5.5-12,12v401.7c0,6.5,5.5,12,12,12h67.1c13.8,0,25,11.2,25,25S344.2,664.4,330.4,664.4z"/>
</g>
<g>
	<path d="M681.7,273.5c-13.8,0-25-11.2-25-25v-47.8c0-6.5-5.5-12-12-12h-34.5c-13.8,0-25-11.2-25-25s11.2-25,25-25h34.5
		c34.2,0,62,27.8,62,62v47.8C706.7,262.3,695.5,273.5,681.7,273.5z"/>
</g>
<g>
	<path d="M538.1,188.7H381.6c-13.8,0-25-11.2-25-25s11.2-25,25-25h156.6c13.8,0,25,11.2,25,25S552,188.7,538.1,188.7z"/>
</g>
<g>
	<path d="M559.6,317.1h-234c-13.8,0-25-11.2-25-25s11.2-25,25-25h234c13.8,0,25,11.2,25,25S573.4,317.1,559.6,317.1z"/>
</g>
<g>
	<path d="M474.2,402.5H325.6c-13.8,0-25-11.2-25-25s11.2-25,25-25h148.6c13.8,0,25,11.2,25,25S488,402.5,474.2,402.5z"/>
</g>
<g>
	<path d="M474.2,505H325.6c-13.8,0-25-11.2-25-25s11.2-25,25-25h148.6c13.8,0,25,11.2,25,25S488,505,474.2,505z"/>
</g>
<g>
	<path d="M604.1,567.8c-13.8,0-25-11.2-25-25V423.5c0-4.7-3.8-8.5-8.5-8.5c-4.7,0-8.5,3.8-8.5,8.5v119.3c0,13.8-11.2,25-25,25
		c-13.8,0-25-11.2-25-25V423.5c0-32.3,26.2-58.5,58.5-58.5s58.5,26.2,58.5,58.5v119.3C629.1,556.6,617.9,567.8,604.1,567.8z"/>
</g>
<g>
	<path d="M673.2,567.8c-13.8,0-25-11.2-25-25v-188c0-4.7-3.8-8.5-8.5-8.5c-4.7,0-8.5,3.8-8.5,8.5v188c0,13.8-11.2,25-25,25
		c-13.8,0-25-11.2-25-25v-188c0-32.3,26.2-58.5,58.5-58.5c32.3,0,58.5,26.2,58.5,58.5v188C698.2,556.6,687,567.8,673.2,567.8z"/>
</g>
<g>
	<path d="M740.2,567.8c-13.8,0-25-11.2-25-25v-104c0-4.7-3.8-8.5-8.5-8.5c-4.7,0-8.5,3.8-8.5,8.5v104c0,13.8-11.2,25-25,25
		c-13.8,0-25-11.2-25-25v-104c0-32.3,26.2-58.5,58.5-58.5s58.5,26.2,58.5,58.5v104C765.2,556.6,754,567.8,740.2,567.8z"/>
</g>
<g>
	<path d="M807.2,568.4c-13.8,0-25-11.2-25-25v-64c0-4.3-3.5-7.9-7.9-7.9H773c-4.3,0-7.9,3.5-7.9,7.9v64c0,13.8-11.2,25-25,25
		c-13.8,0-25-11.2-25-25v-64c0-31.9,26-57.9,57.9-57.9h1.3c31.9,0,57.9,26,57.9,57.9v64C832.2,557.2,821,568.4,807.2,568.4z"/>
</g>
<g>
	<path d="M746.3,852.4H590c-7.7,0-15.1-3.6-19.8-9.7c-0.2-0.2-19.4-25-45.8-50.2c-31.9-30.5-60.6-48.6-80.9-51
		c-0.5-0.1-0.9-0.1-1.4-0.2c-0.6-0.1-15.7-2.8-32-8.6c-27-9.7-43-22.9-48.7-40.2c-3.1-9.5-5.5-28.6,14.3-49.4
		c0.7-0.7,1.4-1.4,2.2-2.1c2.2-1.8,21.9-17.6,52.5-25.9c20.9-5.7,49.6-8.6,81.3,2.3V419.5c0-13.8,11.2-25,25-25s25,11.2,25,25v239.1
		c0,9.4-5.2,17.9-13.6,22.2c-8.3,4.3-18.4,3.6-26-1.9c-52.8-37.7-100.7-7.7-110.8-0.4c7.3,4.9,24,10.9,38.6,13.6
		c31.8,4,68.6,25.9,109.3,64.8c18.6,17.9,33.8,35.2,42.4,45.6h136.2c4.9-5.1,15.2-19.5,28-57.3c8.5-24.9,14.2-48.9,15.9-56.5V520
		c0-13.8,11.2-25,25-25c13.8,0,25,11.2,25,25v171.4c0,1.8-0.2,3.5-0.6,5.2c-0.3,1.3-6.8,31.4-17.8,64.1c-16.9,50-34.8,78.3-56.1,89
		C754,851.5,750.2,852.4,746.3,852.4z"/>
</g>
</svg>
