<?xml version="1.0" encoding="utf-8"?>
<!-- Generator: Adobe Illustrator 18.0.0, SVG Export Plug-In . SVG Version: 6.00 Build 0)  -->
<!DOCTYPE svg PUBLIC "-//W3C//DTD SVG 1.1//EN" "http://www.w3.org/Graphics/SVG/1.1/DTD/svg11.dtd">
<svg version="1.1" id="图层_1" xmlns="http://www.w3.org/2000/svg" xmlns:xlink="http://www.w3.org/1999/xlink" x="0px" y="0px"
	 viewBox="0 0 1000 1000" style="enable-background:new 0 0 1000 1000;" xml:space="preserve">
<style type="text/css">
	.st0{fill-rule:evenodd;clip-rule:evenodd;fill:none;stroke:#020000;stroke-width:50;stroke-linecap:round;stroke-miterlimit:10;}
	
		.st1{fill-rule:evenodd;clip-rule:evenodd;fill:none;stroke:#020000;stroke-width:50;stroke-linecap:round;stroke-linejoin:round;stroke-miterlimit:10;}
	.st2{fill-rule:evenodd;clip-rule:evenodd;fill:none;stroke:#020000;stroke-width:50;stroke-miterlimit:10;}
	.st3{fill-rule:evenodd;clip-rule:evenodd;stroke:#020000;stroke-width:5;stroke-miterlimit:10;}
	.st4{fill:none;stroke:#000000;stroke-width:50;stroke-linecap:round;stroke-miterlimit:10;}
	.st5{fill:none;stroke:#000000;stroke-width:50;stroke-linecap:round;stroke-linejoin:round;stroke-miterlimit:10;}
	.st6{fill-rule:evenodd;clip-rule:evenodd;fill:none;stroke:#000000;stroke-width:50;stroke-miterlimit:10;}
	.st7{fill:none;stroke:#000000;stroke-width:50;stroke-miterlimit:10;}
	.st8{fill:none;stroke:#020202;stroke-width:50;stroke-linecap:round;stroke-miterlimit:10;}
	.st9{fill:#5A9BFD;stroke:#5A9BFD;stroke-width:40;stroke-linecap:round;stroke-miterlimit:10;}
	.st10{fill:none;stroke:#FFFFFF;stroke-width:40;stroke-linecap:round;stroke-miterlimit:10;}
	.st11{fill:none;stroke:#000000;stroke-width:40;stroke-linecap:round;stroke-linejoin:round;stroke-miterlimit:10;}
	.st12{fill:none;stroke:#020000;stroke-width:50;stroke-linecap:round;stroke-miterlimit:10;}
	.st13{fill:none;stroke:#020000;stroke-width:50;stroke-linecap:round;stroke-linejoin:round;stroke-miterlimit:10;}
	.st14{fill-rule:evenodd;clip-rule:evenodd;fill:none;stroke:#000000;stroke-width:50;stroke-linecap:round;stroke-miterlimit:10;}
	
		.st15{fill-rule:evenodd;clip-rule:evenodd;fill:none;stroke:#000000;stroke-width:50;stroke-linecap:round;stroke-linejoin:round;stroke-miterlimit:10;}
	.st16{fill-rule:evenodd;clip-rule:evenodd;}
	.st17{fill:none;}
</style>
<path class="st14" d="M330.4,639.4h-67.1c-20.4,0-37-16.7-37-37V200.7c0-20.4,16.7-37,37-37h39.5"/>
<path class="st14" d="M610.2,163.7h34.5c20.4,0,37,16.7,37,37v47.8"/>
<line class="st14" x1="381.6" y1="163.7" x2="538.1" y2="163.7"/>
<line class="st14" x1="325.6" y1="292.1" x2="559.6" y2="292.1"/>
<line class="st14" x1="325.6" y1="377.5" x2="474.2" y2="377.5"/>
<line class="st14" x1="325.6" y1="480" x2="474.2" y2="480"/>
<path class="st14" d="M537.1,542.8V423.5c0-18.5,15-33.5,33.5-33.5h0c18.5,0,33.5,15,33.5,33.5v119.3"/>
<path class="st14" d="M606.2,542.8v-188c0-18.5,15-33.5,33.5-33.5h0c18.5,0,33.5,15,33.5,33.5v188"/>
<path class="st14" d="M673.2,542.8v-104c0-18.5,15-33.5,33.5-33.5h0c18.5,0,33.5,15,33.5,33.5v104"/>
<path class="st14" d="M740.2,543.4v-64c0-18.1,14.7-32.9,32.9-32.9h1.3c18.1,0,32.9,14.7,32.9,32.9v64"/>
<path class="st15" d="M807,520v171.4c0,0-25.3,118.3-60.7,136H590c0,0-79.7-103.2-143.6-110.7c0,0-91.1-15.8-52.5-56.3
	c0,0,67.7-55.7,143-1.9V419.5"/>
</svg>
