<?xml version="1.0" encoding="utf-8"?>
<!-- Generator: Adobe Illustrator 18.0.0, SVG Export Plug-In . SVG Version: 6.00 Build 0)  -->
<!DOCTYPE svg PUBLIC "-//W3C//DTD SVG 1.1//EN" "http://www.w3.org/Graphics/SVG/1.1/DTD/svg11.dtd">
<svg version="1.1" id="图层_1" xmlns="http://www.w3.org/2000/svg" xmlns:xlink="http://www.w3.org/1999/xlink" x="0px" y="0px"
	 viewBox="0 0 1000 1000" style="enable-background:new 0 0 1000 1000;" xml:space="preserve">
<style type="text/css">
	.st0{fill:#020000;}
	.st1{fill-rule:evenodd;clip-rule:evenodd;}
	.st2{fill:#020202;}
	.st3{fill:#5A9BFD;stroke:#5A9BFD;stroke-width:40;stroke-linecap:round;stroke-miterlimit:10;}
	.st4{fill:none;stroke:#FFFFFF;stroke-width:40;stroke-linecap:round;stroke-miterlimit:10;}
	.st5{fill:none;stroke:#020000;stroke-width:50;stroke-linecap:round;stroke-miterlimit:10;}
	.st6{fill:none;}
	.st7{fill:none;stroke:#000000;stroke-width:50;stroke-linecap:round;stroke-linejoin:round;stroke-miterlimit:10;}
</style>
<g>
	<path d="M514.1,457c-104,0-188.6-84.6-188.6-188.6S410.1,79.7,514.1,79.7c104,0,188.6,84.6,188.6,188.6S618.1,457,514.1,457z
		 M514.1,129.7c-76.4,0-138.6,62.2-138.6,138.6S437.7,407,514.1,407s138.6-62.2,138.6-138.6S590.6,129.7,514.1,129.7z"/>
</g>
<g>
	<path d="M407.3,844.3c-51,0-98.4-1.1-136.3-8.3c-27.1-5.1-48-13.1-64-24.3c-19.8-13.9-31.8-32.7-35.7-56
		c-6.2-36.7-2.5-78.1,10.8-119.7c13.3-41.6,35.6-81.7,64.5-115.9c62.3-73.6,148.9-114.1,243.8-114.1c0.1,0,0.1,0,0.2,0
		c37.7,0,73.8,6,107.2,17.7c31,10.9,59.9,26.8,85.9,47.3c10.8,8.6,12.7,24.3,4.1,35.1c-8.6,10.8-24.3,12.7-35.1,4.1
		c-45.6-36-100.1-54.2-162.1-54.2c0,0-0.1,0-0.1,0c-80,0-153.1,34.2-205.7,96.4c-49.1,58.1-74.3,134.6-64.2,195
		c2.3,13.5,11.1,30.2,59.6,39.4c41.9,7.9,100.4,7.6,162.5,7.3c15.6-0.1,31.7-0.2,47.9-0.1c13.8,0,25,11.3,24.9,25.1
		c0,13.8-11.2,24.9-25,24.9c0,0,0,0-0.1,0c-16,0-32,0-47.5,0.1C431,844.3,419,844.3,407.3,844.3z"/>
</g>
<g>
	<path d="M762.4,687.6H558.9c-13.8,0-25-11.2-25-25s11.2-25,25-25h203.4c13.8,0,25,11.2,25,25S776.2,687.6,762.4,687.6z"/>
</g>
</svg>
