<?xml version="1.0" encoding="utf-8"?>
<!-- Generator: Adobe Illustrator 18.0.0, SVG Export Plug-In . SVG Version: 6.00 Build 0)  -->
<!DOCTYPE svg PUBLIC "-//W3C//DTD SVG 1.1//EN" "http://www.w3.org/Graphics/SVG/1.1/DTD/svg11.dtd">
<svg version="1.1" id="图层_1" xmlns="http://www.w3.org/2000/svg" xmlns:xlink="http://www.w3.org/1999/xlink" x="0px" y="0px"
	 viewBox="0 0 1000 1000" style="enable-background:new 0 0 1000 1000;" xml:space="preserve">
<style type="text/css">
	.st0{fill:#020000;}
	.st1{fill-rule:evenodd;clip-rule:evenodd;}
	.st2{fill:#020202;}
	.st3{fill:#5A9BFD;stroke:#5A9BFD;stroke-width:40;stroke-linecap:round;stroke-miterlimit:10;}
	.st4{fill:none;stroke:#FFFFFF;stroke-width:40;stroke-linecap:round;stroke-miterlimit:10;}
	.st5{fill:none;stroke:#020000;stroke-width:50;stroke-linecap:round;stroke-miterlimit:10;}
	.st6{fill:none;}
	.st7{fill:none;stroke:#000000;stroke-width:50;stroke-linecap:round;stroke-linejoin:round;stroke-miterlimit:10;}
</style>
<g>
	<path d="M535,788.5H248.1c-19.2,0-34.8-15.6-34.8-34.8V196.9c0-19.2,15.6-34.8,34.8-34.8h461.3c19.2,0,34.8,15.6,34.8,34.8v254.5
		c0,13.8-11.2,25-25,25c-13.8,0-25-11.2-25-25V212.1H263.3v526.4H535c13.8,0,25,11.2,25,25S548.8,788.5,535,788.5z"/>
</g>
<g>
	<path d="M615.7,329.6H300c-13.8,0-25-11.2-25-25s11.2-25,25-25h315.7c13.8,0,25,11.2,25,25S629.5,329.6,615.7,329.6z"/>
</g>
<g>
	<path d="M526,447.9H300c-13.8,0-25-11.2-25-25s11.2-25,25-25h226c13.8,0,25,11.2,25,25S539.8,447.9,526,447.9z"/>
</g>
<g>
	<path d="M436.2,567H300c-13.8,0-25-11.2-25-25s11.2-25,25-25h136.2c13.8,0,25,11.2,25,25S450,567,436.2,567z"/>
</g>
<g>
	<path d="M700.2,820.3c-93.9,0-170.2-76.4-170.2-170.2c0-93.9,76.4-170.2,170.2-170.2c93.9,0,170.2,76.4,170.2,170.2
		C870.4,743.9,794,820.3,700.2,820.3z M700.2,529.9c-66.3,0-120.2,53.9-120.2,120.2c0,66.3,53.9,120.2,120.2,120.2
		c66.3,0,120.2-53.9,120.2-120.2C820.4,583.8,766.5,529.9,700.2,529.9z"/>
</g>
<g>
	<path d="M695.1,661.6c-6.8,0-13.3-2.8-18-7.6l-51.9-53.8c-9.6-9.9-9.3-25.8,0.6-35.3c9.9-9.6,25.8-9.3,35.3,0.6l33.6,34.8
		l32.1-34.5c9.4-10.1,25.2-10.7,35.3-1.3c10.1,9.4,10.7,25.2,1.3,35.3l-50,53.8c-4.7,5-11.2,7.9-18.1,8
		C695.3,661.6,695.2,661.6,695.1,661.6z"/>
</g>
<g>
	<path d="M695.1,755.2c-13.8,0-25-11.2-25-25v-93.6c0-13.8,11.2-25,25-25s25,11.2,25,25v93.6C720.1,744,708.9,755.2,695.1,755.2z"/>
</g>
<g>
	<path d="M739.5,683.1h-90.8c-13.8,0-25-11.2-25-25s11.2-25,25-25h90.8c13.8,0,25,11.2,25,25S753.3,683.1,739.5,683.1z"/>
</g>
<g>
	<path d="M739.5,740.5h-90.8c-13.8,0-25-11.2-25-25s11.2-25,25-25h90.8c13.8,0,25,11.2,25,25S753.3,740.5,739.5,740.5z"/>
</g>
</svg>
