<?xml version="1.0" encoding="utf-8"?>
<!-- Generator: Adobe Illustrator 18.0.0, SVG Export Plug-In . SVG Version: 6.00 Build 0)  -->
<!DOCTYPE svg PUBLIC "-//W3C//DTD SVG 1.1//EN" "http://www.w3.org/Graphics/SVG/1.1/DTD/svg11.dtd">
<svg version="1.1" id="图层_1" xmlns="http://www.w3.org/2000/svg" xmlns:xlink="http://www.w3.org/1999/xlink" x="0px" y="0px"
	 viewBox="0 0 1000 1000" style="enable-background:new 0 0 1000 1000;" xml:space="preserve">
<style type="text/css">
	.st0{fill:#020000;}
	.st1{fill-rule:evenodd;clip-rule:evenodd;}
	.st2{fill:#020202;}
	.st3{fill:#5A9BFD;stroke:#5A9BFD;stroke-width:40;stroke-linecap:round;stroke-miterlimit:10;}
	.st4{fill:none;stroke:#FFFFFF;stroke-width:40;stroke-linecap:round;stroke-miterlimit:10;}
	.st5{fill:none;stroke:#020000;stroke-width:50;stroke-linecap:round;stroke-miterlimit:10;}
	.st6{fill:none;}
	.st7{fill:none;stroke:#000000;stroke-width:50;stroke-linecap:round;stroke-linejoin:round;stroke-miterlimit:10;}
</style>
<g>
	<path d="M499,700.7c-83.5,0-161.9-32.5-221-91.5s-91.5-137.5-91.5-221s32.5-161.9,91.5-221s137.5-91.5,221-91.5
		s161.9,32.5,221,91.5s91.5,137.5,91.5,221S779,550.1,720,609.2S582.5,700.7,499,700.7z M499,125.7
		c-144.7,0-262.5,117.8-262.5,262.5S354.3,650.7,499,650.7s262.5-117.8,262.5-262.5S643.8,125.7,499,125.7z"/>
</g>
<g>
	<path d="M499,602.6c-57.3,0-111.1-22.3-151.6-62.8s-62.8-94.3-62.8-151.6c0-57.3,22.3-111.1,62.8-151.6
		c40.5-40.5,94.3-62.8,151.6-62.8s111.1,22.3,151.6,62.8c40.5,40.5,62.8,94.3,62.8,151.6c0,57.3-22.3,111.1-62.8,151.6
		C610.1,580.3,556.3,602.6,499,602.6z M499,223.8c-90.6,0-164.4,73.7-164.4,164.4c0,90.6,73.7,164.4,164.4,164.4
		c90.6,0,164.4-73.7,164.4-164.4C663.4,297.5,589.7,223.8,499,223.8z"/>
</g>
<g>
	<path d="M199,809.4c-3.9,0-7.8-0.9-11.5-2.8c-12.2-6.4-17-21.5-10.6-33.7l95-182.6c6.4-12.2,21.5-17,33.7-10.6s17,21.5,10.6,33.7
		l-95,182.6C216.7,804.5,208,809.4,199,809.4z"/>
</g>
<g>
	<path d="M377.7,909c-3.8,0-7.7-0.9-11.3-2.7c-12.3-6.3-17.2-21.3-11-33.6L461.5,664c6.3-12.3,21.3-17.2,33.6-11
		c12.3,6.3,17.2,21.3,11,33.6L400,895.3C395.6,904,386.8,909,377.7,909z"/>
</g>
<g>
	<path d="M624.3,906c-9.4,0-18.4-5.3-22.6-14.4L504.4,685c-5.9-12.5-0.5-27.4,12-33.3c12.5-5.9,27.4-0.5,33.3,12l97.3,206.6
		c5.9,12.5,0.5,27.4-12,33.3C631.5,905.2,627.9,906,624.3,906z"/>
</g>
<g>
	<path d="M801,809.4c-9,0-17.8-4.9-22.2-13.5l-99-191c-6.4-12.3-1.6-27.3,10.7-33.7c12.3-6.4,27.3-1.6,33.7,10.7l99,191
		c6.4,12.3,1.6,27.3-10.7,33.7C808.8,808.5,804.9,809.4,801,809.4z"/>
</g>
<g>
	<path d="M385.6,893.4c-3.1,0-6.2-0.6-9.2-1.8c-12.8-5.1-19.1-19.6-14-32.5c3.6-9,5.4-18.5,5.4-28.3c0-42.4-34.5-76.8-76.8-76.8
		c-28.4,0-54.4,15.6-67.8,40.7c-6.5,12.2-21.7,16.8-33.8,10.3c-12.2-6.5-16.8-21.7-10.3-33.8c22.1-41.4,65-67.1,111.9-67.1
		c69.9,0,126.8,56.9,126.8,126.8c0,16.1-3,31.8-8.9,46.7C405,887.4,395.5,893.4,385.6,893.4z"/>
</g>
<g>
	<path d="M620.4,897.8c-10,0-19.4-6-23.3-15.8c-5.9-14.9-8.9-30.6-8.9-46.7c0-69.9,56.9-126.8,126.8-126.8
		c37.2,0,72.4,16.2,96.5,44.5c9,10.5,7.7,26.3-2.8,35.2c-10.5,9-26.3,7.7-35.2-2.8c-14.6-17.2-36-27-58.5-27
		c-42.4,0-76.8,34.5-76.8,76.8c0,9.8,1.8,19.3,5.4,28.3c5.1,12.8-1.2,27.4-14,32.4C626.5,897.2,623.4,897.8,620.4,897.8z"/>
</g>
</svg>
