<?xml version="1.0" encoding="utf-8"?>
<!-- Generator: Adobe Illustrator 18.0.0, SVG Export Plug-In . SVG Version: 6.00 Build 0)  -->
<!DOCTYPE svg PUBLIC "-//W3C//DTD SVG 1.1//EN" "http://www.w3.org/Graphics/SVG/1.1/DTD/svg11.dtd">
<svg version="1.1" id="图层_1" xmlns="http://www.w3.org/2000/svg" xmlns:xlink="http://www.w3.org/1999/xlink" x="0px" y="0px"
	 viewBox="0 0 1000 1000" style="enable-background:new 0 0 1000 1000;" xml:space="preserve">
<style type="text/css">
	.st0{fill:#020000;}
	.st1{fill-rule:evenodd;clip-rule:evenodd;}
	.st2{fill:#020202;}
	.st3{fill:#5A9BFD;stroke:#5A9BFD;stroke-width:40;stroke-linecap:round;stroke-miterlimit:10;}
	.st4{fill:none;stroke:#FFFFFF;stroke-width:40;stroke-linecap:round;stroke-miterlimit:10;}
	.st5{fill:none;stroke:#020000;stroke-width:50;stroke-linecap:round;stroke-miterlimit:10;}
	.st6{fill:none;}
	.st7{fill:none;stroke:#000000;stroke-width:50;stroke-linecap:round;stroke-linejoin:round;stroke-miterlimit:10;}
</style>
<g>
	<path d="M774.8,795.6H224.3c-40.7,0-73.9-33.1-73.9-73.9V349.1c0-40.7,33.1-73.9,73.9-73.9h550.5c40.7,0,73.9,33.1,73.9,73.9v58.2
		c0,13.8-11.2,25-25,25c-13.8,0-25-11.2-25-25v-58.2c0-13.2-10.7-23.9-23.9-23.9H224.3c-13.2,0-23.9,10.7-23.9,23.9v372.6
		c0,13.2,10.7,23.9,23.9,23.9h550.5c13.2,0,23.9-10.7,23.9-23.9v-52.7c0-13.8,11.2-25,25-25c13.8,0,25,11.2,25,25v52.7
		C848.7,762.5,815.6,795.6,774.8,795.6z"/>
</g>
<g>
	<path d="M263.1,317.7c-10,0-19.4-6-23.3-15.9c-5.1-12.8,1.3-27.4,14.1-32.4l407.2-160.2c12.8-5,27.2,1.2,32.4,14l35.8,89.4
		c5.1,12.8-1.1,27.4-13.9,32.5c-12.8,5.1-27.4-1.1-32.5-13.9l-26.6-66.3L272.2,315.9C269.2,317.1,266.1,317.7,263.1,317.7z"/>
</g>
<g>
	<path d="M466.3,560.4c-8.6,0-16.6-4.4-21.2-11.8L365,420.6c-7.3-11.7-3.8-27.1,8-34.5c11.7-7.3,27.1-3.8,34.5,8l58.3,93.3
		l54.9-92.8c7-11.9,22.4-15.8,34.2-8.8c11.9,7,15.8,22.4,8.8,34.2l-75.9,128.1c-4.4,7.5-12.5,12.2-21.2,12.3
		C466.5,560.4,466.4,560.4,466.3,560.4z"/>
</g>
<g>
	<path d="M464.2,712.2c-13.8,0-25-11.2-25-25V535.4c0-13.8,11.2-25,25-25s25,11.2,25,25v151.7C489.2,701,478,712.2,464.2,712.2z"/>
</g>
<g>
	<path d="M556.5,565.5H386.2c-13.8,0-25-11.2-25-25s11.2-25,25-25h170.3c13.8,0,25,11.2,25,25S570.3,565.5,556.5,565.5z"/>
</g>
<g>
	<path d="M556.5,641.4H386.2c-13.8,0-25-11.2-25-25s11.2-25,25-25h170.3c13.8,0,25,11.2,25,25S570.3,641.4,556.5,641.4z"/>
</g>
<g>
	<path d="M869.6,668.8H768.7c-70.6,0-128.1-57.4-128.1-128.1c0-70.6,57.4-128.1,128.1-128.1h100.9c20.4,0,37,16.6,37,37v182.1
		C906.6,652.2,890,668.8,869.6,668.8z M768.7,462.7c-43,0-78.1,35-78.1,78.1s35,78.1,78.1,78.1h87.9V462.7H768.7z"/>
</g>
<g>
	<circle class="st1" cx="758.5" cy="542" r="20.9"/>
</g>
</svg>
