<?xml version="1.0" encoding="utf-8"?>
<!-- Generator: Adobe Illustrator 18.0.0, SVG Export Plug-In . SVG Version: 6.00 Build 0)  -->
<!DOCTYPE svg PUBLIC "-//W3C//DTD SVG 1.1//EN" "http://www.w3.org/Graphics/SVG/1.1/DTD/svg11.dtd">
<svg version="1.1" id="图层_1" xmlns="http://www.w3.org/2000/svg" xmlns:xlink="http://www.w3.org/1999/xlink" x="0px" y="0px"
	 viewBox="0 0 1000 1000" style="enable-background:new 0 0 1000 1000;" xml:space="preserve">
<style type="text/css">
	.st0{fill:#020000;}
	.st1{fill-rule:evenodd;clip-rule:evenodd;}
	.st2{fill:#020202;}
	.st3{fill:#5A9BFD;stroke:#5A9BFD;stroke-width:40;stroke-linecap:round;stroke-miterlimit:10;}
	.st4{fill:none;stroke:#FFFFFF;stroke-width:40;stroke-linecap:round;stroke-miterlimit:10;}
	.st5{fill:none;stroke:#020000;stroke-width:50;stroke-linecap:round;stroke-miterlimit:10;}
	.st6{fill:none;}
	.st7{fill:none;stroke:#000000;stroke-width:50;stroke-linecap:round;stroke-linejoin:round;stroke-miterlimit:10;}
</style>
<g>
	<path d="M782.5,792.8H497.3c-13.8,0-25-11.2-25-25s11.2-25,25-25h285.3c12.5,0,22.6-10.1,22.6-22.6V268c0-12.5-10.1-22.6-22.6-22.6
		H227.3c-12.5,0-22.6,10.1-22.6,22.6v452.2c0,12.5,10.1,22.6,22.6,22.6h133.1c13.8,0,25,11.2,25,25s-11.2,25-25,25H227.3
		c-40,0-72.6-32.6-72.6-72.6V268c0-40,32.6-72.6,72.6-72.6h555.3c40,0,72.6,32.6,72.6,72.6v452.2
		C855.1,760.2,822.6,792.8,782.5,792.8z"/>
</g>
<g>
	<path d="M362.7,915.9c-3.2,0-6.5-0.6-9.5-1.9c-9.2-3.8-15.3-12.7-15.4-22.6l-2.4-123.1c-0.3-13.8,10.7-25.2,24.5-25.5
		c0.2,0,0.3,0,0.5,0c13.6,0,24.7,10.9,25,24.5l1.3,65.8l86.2-83.3c9.9-9.6,25.8-9.3,35.3,0.6c9.6,9.9,9.3,25.8-0.6,35.4L380.1,908.9
		C375.3,913.5,369.1,915.9,362.7,915.9z"/>
</g>
<g>
	<circle cx="503.1" cy="482.7" r="30.6"/>
</g>
<g>
	<circle cx="338.3" cy="482.7" r="30.6"/>
</g>
<g>
	<circle cx="668.4" cy="482.7" r="30.6"/>
</g>
</svg>
