<?xml version="1.0" encoding="utf-8"?>
<!-- Generator: Adobe Illustrator 18.0.0, SVG Export Plug-In . SVG Version: 6.00 Build 0)  -->
<!DOCTYPE svg PUBLIC "-//W3C//DTD SVG 1.1//EN" "http://www.w3.org/Graphics/SVG/1.1/DTD/svg11.dtd">
<svg version="1.1" id="图层_1" xmlns="http://www.w3.org/2000/svg" xmlns:xlink="http://www.w3.org/1999/xlink" x="0px" y="0px"
	 viewBox="0 0 1000 1000" style="enable-background:new 0 0 1000 1000;" xml:space="preserve">
<style type="text/css">
	.st0{fill:#020000;}
	.st1{fill-rule:evenodd;clip-rule:evenodd;}
	.st2{fill:#020202;}
	.st3{fill:#5A9BFD;stroke:#5A9BFD;stroke-width:40;stroke-linecap:round;stroke-miterlimit:10;}
	.st4{fill:none;stroke:#FFFFFF;stroke-width:40;stroke-linecap:round;stroke-miterlimit:10;}
	.st5{fill:none;stroke:#020000;stroke-width:50;stroke-linecap:round;stroke-miterlimit:10;}
	.st6{fill:none;}
	.st7{fill:none;stroke:#000000;stroke-width:50;stroke-linecap:round;stroke-linejoin:round;stroke-miterlimit:10;}
</style>
<g>
	<path d="M767.6,693.2H426.7c-46.3,0-83.9-37.6-83.9-83.9V267.3c0-46.3,37.6-83.9,83.9-83.9h340.9c46.3,0,83.9,37.6,83.9,83.9v342.1
		C851.5,655.6,813.9,693.2,767.6,693.2z M426.7,233.4c-18.7,0-33.9,15.2-33.9,33.9v342.1c0,18.7,15.2,33.9,33.9,33.9h340.9
		c18.7,0,33.9-15.2,33.9-33.9V267.3c0-18.7-15.2-33.9-33.9-33.9H426.7z"/>
</g>
<g>
	<path d="M596.5,851.6H273.6c-51.2,0-92.9-41.7-92.9-92.9V434.6c0-51.2,41.7-92.9,92.9-92.9h21.2c13.8,0,25,11.2,25,25
		s-11.2,25-25,25h-21.2c-23.7,0-42.9,19.2-42.9,42.9v324.1c0,23.7,19.2,42.9,42.9,42.9h322.9c23.7,0,42.9-19.2,42.9-42.9v-17.1
		c0-13.8,11.2-25,25-25c13.8,0,25,11.2,25,25v17.1C689.4,810,647.8,851.6,596.5,851.6z"/>
</g>
<g>
	<path d="M694,454.7H485.3c-13.8,0-25-11.2-25-25s11.2-25,25-25H694c13.8,0,25,11.2,25,25S707.8,454.7,694,454.7z"/>
</g>
<g>
	<path d="M589.6,557.2c-13.8,0-25-11.2-25-25V325.9c0-13.8,11.2-25,25-25s25,11.2,25,25v206.3C614.6,546,603.5,557.2,589.6,557.2z"
		/>
</g>
</svg>
