<?xml version="1.0" encoding="utf-8"?>
<!-- Generator: Adobe Illustrator 18.0.0, SVG Export Plug-In . SVG Version: 6.00 Build 0)  -->
<!DOCTYPE svg PUBLIC "-//W3C//DTD SVG 1.1//EN" "http://www.w3.org/Graphics/SVG/1.1/DTD/svg11.dtd">
<svg version="1.1" id="图层_1" xmlns="http://www.w3.org/2000/svg" xmlns:xlink="http://www.w3.org/1999/xlink" x="0px" y="0px"
	 viewBox="0 0 1000 1000" style="enable-background:new 0 0 1000 1000;" xml:space="preserve">
<style type="text/css">
	.st0{fill:#020000;}
	.st1{fill-rule:evenodd;clip-rule:evenodd;}
	.st2{fill:#020202;}
	.st3{fill:#5A9BFD;stroke:#5A9BFD;stroke-width:40;stroke-linecap:round;stroke-miterlimit:10;}
	.st4{fill:none;stroke:#FFFFFF;stroke-width:40;stroke-linecap:round;stroke-miterlimit:10;}
	.st5{fill:none;stroke:#020000;stroke-width:50;stroke-linecap:round;stroke-miterlimit:10;}
	.st6{fill:none;}
	.st7{fill:none;stroke:#000000;stroke-width:50;stroke-linecap:round;stroke-linejoin:round;stroke-miterlimit:10;}
</style>
<g>
	<path d="M724,837.8H276c-52.4,0-95-42.6-95-95V446.2c0-52.4,42.6-95,95-95H724c52.4,0,95,42.6,95,95v296.6
		C819,795.1,776.4,837.8,724,837.8z M276,401.1c-24.8,0-45,20.2-45,45v296.6c0,24.8,20.2,45,45,45H724c24.8,0,45-20.2,45-45V446.2
		c0-24.8-20.2-45-45-45H276z"/>
</g>
<g>
	<path d="M323.3,401.1c-13.8,0-25-11.2-25-25v-96.6c0-111.2,90.5-201.7,201.7-201.7c41.6,0,81.6,12.6,115.6,36.4
		c33.2,23.3,58.4,55.5,72.8,93.2c3.9,10.1,6.9,20.6,9.1,31.1c2.8,13.5-5.9,26.7-19.4,29.5c-13.5,2.8-26.7-5.9-29.5-19.4
		c-1.6-7.9-3.9-15.8-6.8-23.4c-22.3-58.3-79.3-97.5-141.8-97.5c-83.7,0-151.7,68.1-151.7,151.7v96.6
		C348.3,390,337.1,401.1,323.3,401.1z"/>
</g>
<g>
	<circle class="st1" cx="500" cy="552.4" r="43"/>
</g>
<g>
	<path d="M500,709.4c-13.8,0-25-11.2-25-25v-132c0-13.8,11.2-25,25-25c13.8,0,25,11.2,25,25v132C525,698.2,513.8,709.4,500,709.4z"
		/>
</g>
</svg>
