<?xml version="1.0" encoding="utf-8"?>
<!-- Generator: Adobe Illustrator 18.0.0, SVG Export Plug-In . SVG Version: 6.00 Build 0)  -->
<!DOCTYPE svg PUBLIC "-//W3C//DTD SVG 1.1//EN" "http://www.w3.org/Graphics/SVG/1.1/DTD/svg11.dtd">
<svg version="1.1" id="图层_1" xmlns="http://www.w3.org/2000/svg" xmlns:xlink="http://www.w3.org/1999/xlink" x="0px" y="0px"
	 viewBox="0 0 1000 1000" style="enable-background:new 0 0 1000 1000;" xml:space="preserve">
<style type="text/css">
	.st0{fill:#020000;}
	.st1{fill-rule:evenodd;clip-rule:evenodd;}
	.st2{fill:#020202;}
	.st3{fill:#5A9BFD;stroke:#5A9BFD;stroke-width:40;stroke-linecap:round;stroke-miterlimit:10;}
	.st4{fill:none;stroke:#FFFFFF;stroke-width:40;stroke-linecap:round;stroke-miterlimit:10;}
	.st5{fill:none;stroke:#020000;stroke-width:50;stroke-linecap:round;stroke-miterlimit:10;}
	.st6{fill:none;}
	.st7{fill:none;stroke:#000000;stroke-width:50;stroke-linecap:round;stroke-linejoin:round;stroke-miterlimit:10;}
</style>
<g>
	<path d="M505.6,923.6c-56.7,0-111.8-11.1-163.6-33c-50.1-21.2-95-51.5-133.6-90.1S139.5,717,118.4,667
		c-21.9-51.8-33-106.9-33-163.6s11.1-111.8,33-163.6c21.2-50.1,51.5-95,90.1-133.6S292,137.3,342,116.1c51.8-21.9,106.9-33,163.6-33
		s111.8,11.1,163.6,33c50.1,21.2,95,51.5,133.6,90.1s68.9,83.5,90.1,133.6c21.9,51.8,33,106.9,33,163.6s-11.1,111.8-33,163.6
		c-21.2,50.1-51.5,95-90.1,133.6s-83.5,68.9-133.6,90.1C617.4,912.5,562.4,923.6,505.6,923.6z M505.6,133.1
		c-204.2,0-370.3,166.1-370.3,370.3s166.1,370.3,370.3,370.3s370.3-166.1,370.3-370.3S709.8,133.1,505.6,133.1z"/>
</g>
<g>
	<path d="M449.4,532.5c-6.2,0-12.5-2.3-17.3-7L315.9,413.7c-5-4.8-7.7-11.4-7.7-18.2s3-13.4,8-18.1l116.1-107.7
		c10.1-9.4,25.9-8.8,35.3,1.3c9.4,10.1,8.8,25.9-1.3,35.3L369.6,396l97.1,93.4c9.9,9.6,10.3,25.4,0.7,35.3
		C462.5,529.9,455.9,532.5,449.4,532.5z"/>
</g>
<g>
	<path d="M687.2,422.7c0,0-0.1,0-0.1,0l-354-2c-13.8-0.1-24.9-11.3-24.9-25.1c0.1-13.8,11.3-24.9,25-24.9c0,0,0.1,0,0.1,0l354,2
		c13.8,0.1,24.9,11.3,24.9,25.1C712.2,411.6,701,422.7,687.2,422.7z"/>
</g>
<g>
	<path d="M569.2,762.4c-6.4,0-12.8-2.4-17.7-7.3c-9.8-9.8-9.7-25.6,0-35.4l99.6-99.4l-102.6-94.5c-10.2-9.4-10.8-25.2-1.5-35.3
		s25.2-10.8,35.3-1.5l121.7,112.1c5,4.6,7.9,11.1,8.1,17.9c0.1,6.8-2.5,13.4-7.3,18.2L586.8,755.1
		C582,759.9,575.6,762.4,569.2,762.4z"/>
</g>
<g>
	<path d="M687.2,647.4H327.6c-13.8,0-25-11.2-25-25s11.2-25,25-25h359.6c13.8,0,25,11.2,25,25S701.1,647.4,687.2,647.4z"/>
</g>
</svg>
