<?xml version="1.0" encoding="utf-8"?>
<!-- Generator: Adobe Illustrator 18.0.0, SVG Export Plug-In . SVG Version: 6.00 Build 0)  -->
<!DOCTYPE svg PUBLIC "-//W3C//DTD SVG 1.1//EN" "http://www.w3.org/Graphics/SVG/1.1/DTD/svg11.dtd">
<svg version="1.1" id="图层_1" xmlns="http://www.w3.org/2000/svg" xmlns:xlink="http://www.w3.org/1999/xlink" x="0px" y="0px"
	 viewBox="0 0 1000 1000" style="enable-background:new 0 0 1000 1000;" xml:space="preserve">
<style type="text/css">
	.st0{fill:#020000;}
	.st1{fill-rule:evenodd;clip-rule:evenodd;}
	.st2{fill:#020202;}
	.st3{fill:#5A9BFD;stroke:#5A9BFD;stroke-width:40;stroke-linecap:round;stroke-miterlimit:10;}
	.st4{fill:none;stroke:#FFFFFF;stroke-width:40;stroke-linecap:round;stroke-miterlimit:10;}
	.st5{fill:none;stroke:#020000;stroke-width:50;stroke-linecap:round;stroke-miterlimit:10;}
	.st6{fill:none;}
	.st7{fill:none;stroke:#000000;stroke-width:50;stroke-linecap:round;stroke-linejoin:round;stroke-miterlimit:10;}
</style>
<g>
	<path d="M596.9,768.3h-29.1c-13.8,0-25-11.2-25-25c0-13.8,11.2-25,25-25h29.1c23.3,0,42.2-18.9,42.2-42.2V464.9
		c0-23.3-18.9-42.2-42.2-42.2H212.8c-23.3,0-42.2,18.9-42.2,42.2v211.2c0,23.3,18.9,42.2,42.2,42.2h190c13.8,0,25,11.2,25,25
		c0,13.8-11.2,25-25,25h-190c-50.8,0-92.2-41.4-92.2-92.2V464.9c0-50.8,41.4-92.2,92.2-92.2h384.1c50.8,0,92.2,41.4,92.2,92.2v211.2
		C689.2,726.9,647.8,768.3,596.9,768.3z"/>
</g>
<g>
	<path d="M771.3,601.8c-13.8,0-25-11.2-25-25c0-13.8,11.2-25,25-25c23.3,0,42.2-18.9,42.2-42.2V298.4c0-23.3-18.9-42.2-42.2-42.2
		H387.2c-23.3,0-42.2,18.9-42.2,42.2c0,13.8-11.2,25-25,25c-13.8,0-25-11.2-25-25c0-50.8,41.4-92.2,92.2-92.2h384.1
		c50.8,0,92.2,41.4,92.2,92.2v211.2C863.5,560.4,822.2,601.8,771.3,601.8z"/>
</g>
<g>
	<path d="M579.2,903.4c-5.4,0-10.8-1.8-15.3-5.2L389.6,763c-10.9-8.5-12.9-24.2-4.4-35.1c8.5-10.9,24.2-12.9,35.1-4.4l125.5,97.2
		L535,746.9c-2-13.7,7.5-26.3,21.2-28.3c13.7-2,26.3,7.5,28.3,21.2L604,874.9c1.5,10.1-3.4,20-12.2,25.2
		C587.9,902.3,583.6,903.4,579.2,903.4z"/>
</g>
<g>
	<circle class="st1" cx="305.3" cy="570.5" r="22.1"/>
</g>
<g>
	<circle class="st1" cx="404.9" cy="570.5" r="22.1"/>
</g>
<g>
	<circle class="st1" cx="506.9" cy="570.5" r="22.1"/>
</g>
</svg>
