<?xml version="1.0" encoding="utf-8"?>
<!-- Generator: Adobe Illustrator 18.0.0, SVG Export Plug-In . SVG Version: 6.00 Build 0)  -->
<!DOCTYPE svg PUBLIC "-//W3C//DTD SVG 1.1//EN" "http://www.w3.org/Graphics/SVG/1.1/DTD/svg11.dtd">
<svg version="1.1" id="图层_1" xmlns="http://www.w3.org/2000/svg" xmlns:xlink="http://www.w3.org/1999/xlink" x="0px" y="0px"
	 viewBox="0 0 1000 1000" enable-background="new 0 0 1000 1000" xml:space="preserve">
<g>
	<path d="M492.8,921.5c-56.9,0-112.1-11.1-164.1-33.1c-50.2-21.2-95.3-51.6-134-90.3c-38.7-38.7-69.1-83.8-90.3-134
		c-22-52-33.1-107.2-33.1-164.1s11.1-112.1,33.1-164.1c21.2-50.2,51.6-95.3,90.3-134c38.7-38.7,83.8-69.1,134-90.3
		c52-22,107.2-33.1,164.1-33.1s112.1,11.1,164.1,33.1c50.2,21.2,95.3,51.6,134,90.3c38.7,38.7,69.1,83.8,90.3,134
		c22,52,33.1,107.2,33.1,164.1s-11.1,112.1-33.1,164.1c-21.2,50.2-51.6,95.3-90.3,134c-38.7,38.7-83.8,69.1-134,90.3
		C604.9,910.3,549.7,921.5,492.8,921.5z M492.8,128.5C288,128.5,121.4,295.2,121.4,500S288,871.5,492.8,871.5S864.3,704.8,864.3,500
		S697.6,128.5,492.8,128.5z"/>
</g>
<g>
	<path d="M401.2,674.3c-6.4,0-12.8-2.4-17.7-7.3L228.3,511.7c-9.8-9.8-9.8-25.6,0-35.4c9.8-9.8,25.6-9.8,35.4,0l137.8,137.8
		L695.9,329c9.9-9.6,25.7-9.4,35.4,0.6c9.6,9.9,9.4,25.7-0.6,35.4L418.6,667.3C413.7,672,407.5,674.3,401.2,674.3z"/>
</g>
</svg>
