<?xml version="1.0" encoding="utf-8"?>
<!-- Generator: Adobe Illustrator 18.0.0, SVG Export Plug-In . SVG Version: 6.00 Build 0)  -->
<!DOCTYPE svg PUBLIC "-//W3C//DTD SVG 1.1//EN" "http://www.w3.org/Graphics/SVG/1.1/DTD/svg11.dtd">
<svg version="1.1" id="图层_1" xmlns="http://www.w3.org/2000/svg" xmlns:xlink="http://www.w3.org/1999/xlink" x="0px" y="0px"
	 viewBox="0 0 1000 1000" enable-background="new 0 0 1000 1000" xml:space="preserve">
<g>
	<path d="M606.8,861.5c-15.1,0-28.8-7.1-37.5-19.5l-85.7-121.5l-209.5,73.9c-6.6,2.3-13.4,3.5-20.3,3.5c-30.9,0-56.9-23.2-60.6-53.9
		l-65.5-555.7c-1.5-12.6,2.5-25.3,10.9-34.7c8.5-9.5,20.6-15,33.3-15c6.4,0,12.6,1.4,18.5,4l726.1,331.1c20.3,9.3,32.5,29.6,31,51.9
		c-1.5,22.3-16.2,40.8-37.6,47.3l-220.6,67L652,824.5C647.6,846.3,629,861.5,606.8,861.5z M485.1,669.7c14.9,0,29,7.3,37.6,19.5
		l82.1,116.4l35.9-177.9c3.4-16.6,15.5-30,31.7-34.9l222.8-67.7c0.7-0.2,2.1-0.6,2.2-2.8c0.1-2.2-1.1-2.8-1.8-3.1L178.5,192.1
		l64.4,546c0.7,6.3,6.2,9.7,10.9,9.7c1.2,0,2.5-0.2,3.7-0.6l212.3-74.9C474.8,670.6,479.9,669.7,485.1,669.7z"/>
</g>
<g>
	<path d="M553.8,567.9c-6.2,0-12.3-2.3-17.2-6.8L149,194.1c-10-9.5-10.5-25.3-1-35.3c9.5-10,25.3-10.5,35.3-1L571,524.7
		c10,9.5,10.5,25.3,1,35.3C567,565.3,560.4,567.9,553.8,567.9z"/>
</g>
</svg>
