<?xml version="1.0" encoding="utf-8"?>
<!-- Generator: Adobe Illustrator 18.0.0, SVG Export Plug-In . SVG Version: 6.00 Build 0)  -->
<!DOCTYPE svg PUBLIC "-//W3C//DTD SVG 1.1//EN" "http://www.w3.org/Graphics/SVG/1.1/DTD/svg11.dtd">
<svg version="1.1" id="图层_1" xmlns="http://www.w3.org/2000/svg" xmlns:xlink="http://www.w3.org/1999/xlink" x="0px" y="0px"
	 viewBox="0 0 1000 1000" enable-background="new 0 0 1000 1000" xml:space="preserve">
<g>
	<path d="M500,909c-55.2,0-108.8-10.8-159.2-32.2c-48.7-20.6-92.5-50.1-130-87.7c-37.6-37.6-67-81.3-87.7-130
		C101.8,608.8,91,555.2,91,500s10.8-108.8,32.2-159.2c20.6-48.7,50.1-92.5,87.7-130c37.6-37.6,81.3-67,130-87.6
		C391.2,101.8,444.8,91,500,91s108.8,10.8,159.2,32.2c48.7,20.6,92.5,50.1,130,87.6c37.6,37.6,67,81.3,87.7,130
		c21.3,50.4,32.2,104,32.2,159.2s-10.8,108.8-32.2,159.2c-20.6,48.7-50.1,92.5-87.7,130c-37.6,37.6-81.3,67-130,87.7
		C608.8,898.2,555.2,909,500,909z M500,141C302,141,141,302,141,500S302,859,500,859S859,698,859,500S698,141,500,141z"/>
</g>
<g>
	<rect x="107.2" y="479.3" transform="matrix(0.695 0.719 -0.719 0.695 509.0462 -191.495)" width="746.1" height="50"/>
</g>
</svg>
